<?xml version="1.0" encoding="utf-8"?>
<!-- Generator: Adobe Illustrator 27.9.0, SVG Export Plug-In . SVG Version: 6.00 Build 0)  -->
<svg version="1.1" id="Laag_1" xmlns="http://www.w3.org/2000/svg" xmlns:xlink="http://www.w3.org/1999/xlink" x="0px" y="0px"
	 viewBox="0 0 349.1 277" style="enable-background:new 0 0 349.1 277;" xml:space="preserve">
<style type="text/css">
	.st0{fill:#FBEBD7;stroke:#000000;stroke-width:7;stroke-miterlimit:10;}
	.st1{clip-path:url(#SVGID_00000147215345799239224800000016363295990066123413_);}
	.st2{fill:#040505;}
	.st3{fill:#030405;}
	.st4{fill:#FDFCFC;}
	.st5{fill:#080809;}
	.st6{fill:#070809;}
	.st7{fill:#090A0A;}
	.st8{fill:#141415;}
	.st9{fill:#0D0E0E;}
	.st10{fill:#101111;}
	.st11{fill:#0F1010;}
	.st12{fill:#111212;}
	.st13{fill:#161617;}
	.st14{fill:#282828;}
	.st15{fill:#121313;}
	.st16{fill:#0B0B0C;}
	.st17{fill:#252526;}
	.st18{fill:#131314;}
	.st19{fill:#F7F7F7;}
	.st20{fill:#F8F6F6;}
	.st21{fill:#2E2E2E;}
	.st22{fill:#E6E5E5;}
	.st23{fill:#F9F8F7;}
	.st24{fill:#909090;}
	.st25{fill:#9F9F9F;}
	.st26{fill:#F8F7F8;}
	.st27{fill:#F4F3F3;}
	.st28{fill:#E4E3E4;}
	.st29{fill:#D1D0D0;}
	.st30{fill:#CAC9CA;}
	.st31{fill:#ECEBEB;}
	.st32{fill:#F5F4F4;}
	.st33{fill:#6B6A6A;}
	.st34{fill:#F6F5F5;}
	.st35{fill:#454545;}
	.st36{fill:#3B3B3B;}
	.st37{fill:#DBDADA;}
	.st38{fill:#8F8F8F;}
	.st39{fill:#3A3A3A;}
	.st40{fill:#A9A8A8;}
	.st41{fill:#A7A7A7;}
	.st42{fill:#323232;}
	.st43{fill:#818181;}
	.st44{fill:#EDECEC;}
	.st45{fill:#C5C4C4;}
	.st46{fill:#A5A5A5;}
	.st47{fill:#A6A6A7;}
	.st48{fill:#4C4C4C;}
	.st49{fill:#F0EFEF;}
	.st50{fill:#E3E2E2;}
	.st51{fill:#F5F5F5;}
	.st52{fill:#ECEBEC;}
	.st53{fill:#E5E4E4;}
	.st54{fill:#DEDDDD;}
	.st55{fill:#C4C4C4;}
	.st56{fill:#E9E8E8;}
	.st57{fill:#EFEEEE;}
	.st58{fill:#262626;}
	.st59{fill:#E8E7E8;}
	.st60{fill:#F0EFF0;}
	.st61{fill:#EBEAEA;}
	.st62{fill:#B8B6B6;}
	.st63{fill:#383939;}
	.st64{fill:#B7B5B6;}
	.st65{fill:#CDCCCC;}
	.st66{fill:#E2E1E1;}
	.st67{fill:#E7E6E7;}
	.st68{fill:#222122;}
	.st69{fill:#D7D7D7;}
	.st70{fill:#2A2B2B;}
	.st71{fill:#FDFDFD;}
	.st72{fill:#1A1B1B;}
	.st73{fill:#808080;}
	.st74{fill:#D2D1D1;}
	.st75{fill:#414141;}
	.st76{fill:#DDDBDC;}
	.st77{fill:#DDDCDC;}
	.st78{fill:#B4B3B3;}
	.st79{fill:#878787;}
	.st80{fill:#A09F9F;}
	.st81{fill:#ACABAC;}
	.st82{fill:#5C5C5C;}
	.st83{fill:#555555;}
	.st84{fill:#FAFAFA;}
	.st85{fill:#1C1C1C;}
	.st86{fill:#E0DFDF;}
	.st87{fill:#D5D5D5;}
	.st88{fill:#BCBCBC;}
	.st89{fill:#A4A3A3;}
	.st90{fill:#8C8C8C;}
	.st91{fill:#797979;}
	.st92{fill:#D0CFD0;}
	.st93{fill:#D1D0D1;}
	.st94{fill:#FAF9F9;}
	.st95{fill:#A5A5A6;}
	.st96{fill:#494949;}
	.st97{fill:#8E8E8E;}
	.st98{fill:#797879;}
	.st99{fill:#7D7C7C;}
	.st100{fill:#676767;}
	.st101{fill:#454544;}
	.st102{fill:#DFDEDE;}
	.st103{fill:#C0BFBF;}
	.st104{fill:#D9D9D9;}
	.st105{fill:#D9D8D8;}
	.st106{fill:#9E9E9E;}
	.st107{fill:#2F2F2F;}
	.st108{fill:#A1A1A1;}
	.st109{fill:#D1D1D1;}
	.st110{fill:#9B9B9B;}
	.st111{fill:#C9C8C8;}
	.st112{fill:#ADADAD;}
	.st113{fill:#AAA9A9;}
	.st114{fill:#9A9999;}
	.st115{fill:#BEBEBE;}
	.st116{fill:#BFBFBF;}
	.st117{fill:#BFBEBE;}
	.st118{fill:#EEEDED;}
	.st119{fill:#D2D2D3;}
	.st120{fill:#CBCBCB;}
	.st121{fill:#959494;}
	.st122{fill:#D8D7D7;}
	.st123{fill:#A0A0A0;}
	.st124{fill:#F2F1F2;}
	.st125{fill:#F7F6F6;}
	.st126{fill:#F3F2F2;}
	.st127{fill:#E5E3E4;}
	.st128{fill:#A6A6A6;}
	.st129{fill:#313132;}
	.st130{fill:#CECCCD;}
	.st131{fill:#686868;}
	.st132{fill:#A2A1A1;}
	.st133{fill:#666666;}
	.st134{fill:#252525;}
	.st135{fill:#5D5D5D;}
	.st136{fill:#CBC9C9;}
	.st137{fill:#F3F3F3;}
	.st138{fill:#7D7D7D;}
	.st139{fill:#C7C6C6;}
	.st140{fill:#EFEEEF;}
	.st141{fill:#F3F2F3;}
	.st142{fill:#101011;}
	.st143{fill:#DBD9DA;}
	.st144{fill:#464646;}
	.st145{fill:#888888;}
	.st146{fill:#A9A9A9;}
	.st147{fill:#474747;}
	.st148{fill:#9E9E9D;}
	.st149{fill:#E6E5E6;}
	.st150{fill:#CBCACA;}
	.st151{fill:#919090;}
	.st152{fill:#F5F4F5;}
	.st153{fill:#E5E5E5;}
	.st154{fill:#B8B7B7;}
	.st155{fill:#9B9A9A;}
	.st156{fill:#CECECF;}
	.st157{fill:#DCDCDB;}
	.st158{fill:#919191;}
	.st159{fill:#C1C0C0;}
	.st160{fill:#949494;}
	.st161{fill:#979797;}
	.st162{fill:#D8D8D8;}
	.st163{fill:#B8B8B8;}
	.st164{fill:#7E7E7E;}
	.st165{fill:#858585;}
	.st166{fill:#B1B1B1;}
	.st167{fill:#A8A8A8;}
	.st168{fill:#101010;}
	.st169{fill:#9F9E9E;}
	.st170{fill:#C7C7C7;}
	.st171{fill:#ABABAB;}
	.st172{fill:#B1B0B0;}
	.st173{fill:#E7E7E7;}
	.st174{fill:#BDBDBD;}
	.st175{fill:#E1E1E1;}
	.st176{fill:#C2C1C1;}
	.st177{fill:#EAEAEA;}
	.st178{fill:#D5D4D4;}
	.st179{fill:#090909;}
	.st180{fill:#191A1A;}
	.st181{fill:#303030;}
	.st182{fill:#D4D2D3;}
	.st183{fill:#1E1E1E;}
	.st184{fill:#1F2020;}
	.st185{fill:#151516;}
	.st186{fill:#444444;}
	.st187{fill:#CFCECF;}
	.st188{fill:#050506;}
	.st189{fill:#040405;}
	.st190{fill:#030304;}
	.st191{fill:#040506;}
	.st192{fill:#262627;}
	.st193{fill:#C3C2C3;}
	.st194{fill:#BDBCBC;}
	.st195{fill:#BCBBBC;}
	.st196{fill:#B0AFAF;}
	.st197{fill:#B9B8B8;}
	.st198{fill:#B2B1B1;}
	.st199{fill:#ABAAAA;}
	.st200{fill:#B0B0B0;}
	.st201{fill:#B6B5B5;}
	.st202{fill:#C6C4C5;}
	.st203{fill:#BEBDBE;}
	.st204{fill:#C3C1C2;}
	.st205{fill:#CDCCCD;}
	.st206{fill:#CACACA;}
	.st207{fill:#C6C5C5;}
	.st208{fill:#C5C4C5;}
	.st209{fill:#AEADAE;}
	.st210{fill:#B4B2B3;}
	.st211{fill:#FEFDFD;}
	.st212{fill:#939393;}
	.st213{fill:#7A7979;}
	.st214{fill:#717070;}
	.st215{fill:#B9B7B7;}
	.st216{fill:#838383;}
	.st217{fill:#939292;}
	.st218{fill:#D7D6D6;}
</style>
<g id="Laag_3">
	<rect x="9.8" y="10.5" class="st0" width="329.5" height="251.7"/>
</g>
<g id="Laag_4">
</g>
<g id="Laag_2_00000163781241285938852110000014396584696368029361_">
	<g id="Laag_1_00000105416804257239734390000012428042547690988698_">
		<g>
			<g>
				<defs>
					<polyline id="SVGID_1_" points="-204.8,385.6 -204.8,-59 483.2,-59 483.2,385.6 					"/>
				</defs>
				<clipPath id="SVGID_00000110437179464646606610000013032067232173100966_">
					<use xlink:href="#SVGID_1_"  style="overflow:visible;"/>
				</clipPath>
				<g style="clip-path:url(#SVGID_00000110437179464646606610000013032067232173100966_);">
					<g>
						<path class="st2" d="M246.4,105.3c8.3,0.8,15.9,3.5,23.1,7.7c4.1,2.5,4.8,6.4,5.1,10.6c0.2,3.7,0.2,7.4,0.2,11.1
							c-0.4,0.3-0.8,0.4-1.2,0.4c-0.4-0.2-0.8-0.4-1.2-0.6c-0.8-0.4-1.8-0.4-2.6-0.8c-0.5-0.4-0.2-1.2-0.7-1.6
							c0,0.4-0.1,0.7-0.6,0.9c-0.7,0.2-1.4,0.2-2.1,0c-0.9-0.4-1.8-0.3-2.7-0.1c-0.5,0-1-0.2-1.4-0.5c-1.2-1.3-2-3.1-4.3-2.6
							c-0.8,0.1-1.6,0-2.3-0.2c-1.4-0.5-2.8-1.6-3.8,0.4c-0.9,2.6-0.6,5.2-0.4,7.9c0.6,1.6,1.9,1.3,3.1,1.2c0.5-0.1,1-0.1,1.5-0.2
							c1,0,2,0.3,2.9,0.4c1,0.1,2,0.2,3,0.6c1.2,0.5,1.8,1.6,2.7,2.5c0.6,0.3,1.3,0.5,2,0.6c0.7,0.1,1.3,0.3,2,0.5
							c1.1,0.6,2.2-0.2,3.3-0.3c1.1-0.1,2,0.2,2.7,1.1c1.6,3.7,0.2,7.5,0.1,11.3c-0.1,4.7,1.4,6.9,6.2,6.3c0.9-0.1,2-0.2,3,1.2
							c-6.8,0.5-13.4,1-19.9,1.4c-12.2,2.3-24.6,2.6-36.9,2.8c-34.3,0.4-68.5,0.1-102.8,0.1c-7.5,0-14.9-0.5-22.2-2.2
							c-5.8-1.3-11.8,0.6-17.6-0.7c-5.6-0.5-11.2-0.9-17.1-1.4c0.3-0.5,0.4-0.9,0.6-0.9c12.1-1.7,12.1-1.7,11.8-14.2
							c0.6-1.6,1.8-2.5,3.3-3.2c1.2-0.6,2.4-1.1,3.7-1c1.5,0.2,3,0.3,4.3-0.7c1-0.6,2-0.8,3.2-0.6c2.3,0.6,4.6,0.1,6.8-0.5
							c4.9-0.8,10,0.4,14.8-1.2c8.3-0.6,16.6-0.2,24.9-0.3c2.5,0,5,0,7.6,0c7.5-0.3,15,0.8,22.4-0.8c7.1-0.5,14.2-0.8,21.3,0.1
							c0.6,0.2,1.1,0.7,1.5,1.2c0.3,3.6,0.5,7.1,2.7,10.2c1.9,2.3,2.7,5.8,6.4,6.1c2.7-3.6,2.1-7.2-1.6-9.1c-1.6-0.8-3.4-0.9-5-1.5
							c-2.6-1-3.5-2.5-0.8-4.5c4.4-1.1,8.8-0.4,13.2-0.6c5.6,0.4,11.3-0.8,16.9,0.8c1.8,1,1.2,2.8,1.3,4.3c0.4,2.1,1.4,4.1,1.9,6.2
							c0.1,0.3,0.2,0.6,0.4,0.9c0.1-0.4-0.2-0.6-0.3-1c-0.6-2-1.2-4-1.9-6c0.5-3-1.3-5.8-1-8.7c0-3.3,0.3-6.6-0.1-9.9
							c-0.3-2.8-1.5-4-4.3-2.3c-0.6,0.5-1.3,1-2,1.3c-0.5,0.2-1.1,0.2-1.6,0.2c-0.8-0.2-1.4-0.7-1.9-1.3c-1-1.9-3.3-2.6-4.5-4.3
							c-0.5-1-0.7-2.1-0.8-3.2c-0.1-0.6-0.1-1.1-0.1-1.7c-0.1-2.7,0.5-5.5-0.7-8.1c-0.4-0.7-0.9-1.3-1.5-1.9
							c-3.1-2.4-7.5,0.3-10.4-2.6c-0.7-3.4,0.3-4.9,4.2-4.8c14.8,0.1,29.2,3,43.7,5.3c0.3,0,0.4,0.6,0.7,0.9
							c-0.9,0.6-1.8,1.3-1.4,2.8C245.1,107,245.6,106.1,246.4,105.3z"/>
						<path class="st3" d="M138.9,47.4c6.2,4.8,6.8,12.4,9.4,19c-1.4,1.5-3.3,2-5.2,2.5c-2.4,0.4-4.7,1.3-7,2.1
							c-0.5,0.2-1,0.3-1.5,0.5c-2,0.6-4,0.9-6,1.7c-0.5,0.2-0.9,0.4-1.4,0.6c-1.5,0.6-3,1-4.5,1.2c-2,0.3-3.9,0.9-5.7,1.9
							c-2.3,1.2-4.4,2.8-7,3.1c-2-0.2-3.3,1.2-4.9,2c-3.3,2.1-6.5,4.3-9.2,7.2c-0.8,0.8-1.7,1.3-2.8,1.5c-3.3,0.4-5.3,3.6-8.6,3.9
							c-0.9-0.3-1.1,3.7-2.4,0.5c-0.6-1.6-1.2-3.7-0.6-5.1c2.2-4.9,0.7-10.5,3.3-15.2c0.5-0.8,1.7-0.5,2.1-1.3l0.1,0.1
							c1.6-2.8,3.8-5,5.8-7.5c-0.1-1.7,1.7-2.1,2.4-3.2c2.7-0.6,4.2-2.9,6.4-4.1c0.8-0.6,1.7-1.2,2.6-1.7c2.1-1.5,4-3.2,6.4-4.2
							c0.9-0.4,1.9-0.6,2.9-0.8c1.8-0.3,3-1.6,4.4-2.5c5.6-1.8,11.1-4.1,17-5.1C137.1,44.1,138.1,45.6,138.9,47.4z"/>
						<path class="st4" d="M84.5,164.4c25.5,0.3,51,0.9,76.5,0.9c34.4,0,68.7-0.6,103-0.9c-0.9,2.9-3.6,1-5.4,2
							c-3.1,1.6-4.2,3-1.7,5.9c-1.9,2.1-4.5,1.5-6.7,1.3c-8.1-0.9-16.1-0.4-24.2-0.3c-14.4,0-28.7-1-43-1c-27.5-0.1-55,1.1-82.5,1.4
							c-2.3,0-4.8,0.7-6.7-1.3c0.7-2.2,4.7,0.9,4.8-3.1c0-1.3,5,1,3.7-2.3c-1.2-2.9-6-2.4-7.3-1.2c-3.4,2.8-5.8,1.7-8.6-0.3
							C85.9,165,85.2,164.8,84.5,164.4z"/>
						<path class="st5" d="M80.9,139.4c-2.3-5.8-1.4-11.1,2.4-15.9c1.4-1.1,2.8-2.1,4.4-2.8c1.2-0.6,2.3-1,3.6-1.4
							c1.8-0.6,3.5-1.2,5.1-2.1c1.7-1,3.7-1.3,5.6-1.5c2.5-0.3,4.9-1.1,7.3-1.7c0.8-0.2,1.6-0.4,2.4-0.5c3-0.5,6-0.8,8.7-2.2
							c1-0.6,2.1-0.9,3.3-0.7c3.3,0.8,6.4-1,9.7-0.8c5-1,10.1-0.9,15.1-1.9c2.6-0.5,5.3-0.4,8-0.4c3.9-0.1,7.9,0.5,11.8-0.6
							c4.2-0.7,6.1,1.3,6.4,5.3c0.1,1.8,0.9,3.4,1.7,5c1.2,4.1,4.4,7.6,4,12.3c-4.7,2.8-9.3,1.7-13.8-0.5c-1.6-3.2-0.7-6.6-1-9.9
							c-0.1-0.8-0.4-1.6-0.7-2.4c-4.7-3.6-7.3-2.7-9.4,2.6c-1.4,3.6,1,7.4-1.2,10.7c-1.9,1.7-3.9,2-6.1,0.8
							c-1.9-2.1-1.4-4.8-1.5-7.2c-0.1-2.3,0.2-4.7-1.6-6.6c-4.3-1.4-6.2-0.2-7,4.3c-0.6,3.2,0.3,6.6-0.9,9.7c-0.3,0.6-0.7,1-1.3,1.3
							c-1.2,0.4-2.4,0.4-3.6-0.3c-3.8-3.6-1.3-8.6-2.7-12.7c-2.9-2.5-4.9-1.2-6.6,1.6c-0.7,2.9-0.1,5.8-0.5,8.7
							c-0.4,2.8-1.4,5-5,3.7c-2.7-2.9-0.9-6.8-2.1-10c-0.5-0.9-0.4-2.5-1.9-2.6c-1.7-0.1-2.2,1.3-2.5,2.6c-0.4,2.1-0.2,4.2-0.3,6.3
							c-0.2,2.6-0.4,5.1-3.8,5.5c-0.9,0-1.7-0.2-2.4-0.7c-2.7-3.5-0.3-7.6-1.4-12.6c-2.2,3.5-1.3,6.7-2.2,9.4
							c-0.5,1.3-1.2,2.9-2.7,2.7c-1.6-0.1-1.6-1.9-1.9-3.3c-0.3-1.5,0.2-3.1-0.8-4.5c-1.5,0-1.6,1.6-2.6,2.2
							c-0.4,0.3-0.9,0.4-1.4,0.4c-1.2,0-2.2-0.9-3.4-0.8c-0.9,0.3-1.7,0.7-2.6,1.1c-1.4,1.6-0.8,3.6-1,5.5
							C84.2,136.6,83.8,138.8,80.9,139.4z"/>
						<path class="st6" d="M93.9,172.4c32-1.5,64-2.1,96-1.7c22.4,0.3,44.7,1.1,67.1,1.6c0.6,0.5,3.1,0.1,1.3,1.8
							c-0.9,0.9-3,0.6-4.5,0.7c-52,2.1-104.1,2.2-156.1,0c-1.6-0.1-3.3,0-4.6-0.8C91.5,173,93.3,172.8,93.9,172.4z"/>
						<path class="st7" d="M153.8,79.6c2.2,5.4,4.3,10.9,6.5,16.3c0.9,2.7-0.9,3.5-2.9,3.7c-2.4,0.3-4.9,1-7.4,0.5
							c-0.6-0.3-1.1-0.7-1.4-1.3c-1.6-3.3,0.4-7.2-2-10.3c-3.4-3.7-6.1-3.3-7.9,1.1c-0.9,2.2-0.7,4.5-0.3,6.8
							c0.4,2.4,0.5,4.8-2.8,5.3c-3.1,0-3.9-2-4.2-4.5c-0.3-2.3,0.2-4.6-0.7-6.8c-4-2.2-7.1-0.1-8.1,5.5c-0.5,2.8,1,6.4-3,7.9
							c-2.7,0-3-1.7-2.8-3.9c0.2-1.9,0.5-3.8-0.4-5.6c-1.3-2.8-2.8-2.4-3.9-0.1c-1.1,2.2-1.3,4.8-1.7,7.2c-0.3,2,0.1,4.3-2.1,5.7
							c-7-0.1-3.3-4.9-3.6-7.9c-0.1-0.8,0.1-1.8-0.6-2.1c-1.3-0.7-1.6,0.6-2,1.4c-1.7,3.3-0.5,7.4-2.7,10.6
							c-0.6,0.2-1.1,0.1-1.6-0.2c-1.8-2.8-0.9-6.2-2.2-9.1c-0.4-1.3-1.5-2.4-1.6-3.8c2.3-5.8,7.9-6,12.8-7.3
							c1.5-0.4,2.9-1.2,4.2-2.1c3.8-2.1,8.2-2.3,12.2-3.8c1.9-0.2,3.9-0.2,5.7-0.8c1.9-0.5,3.9-0.5,5.8-1.1c2.1-0.6,4.5-0.2,6.5-1.3
							c1.3-0.6,2.6-1.1,4.1-1C148.4,79.5,151.5,76.9,153.8,79.6z"/>
						<path class="st8" d="M108.5,89.8c-4.9,1.2-10.1,1.7-13.4,6.3c-1.7,2.4-4.7,3.3-6.2,5.9c-1.3,1.6-3.2,2.5-4.7,3.9
							c-0.6,0.5-1.2,0.9-1.9,1.2c-0.5,0.1-1,0-1.5-0.2c-0.9-4.4,2.3-6.8,4.8-9.4c0.9-0.9,2.1-1.5,2.6-2.7c1-2.3,2.3-4.1,4.9-4.7
							c0.6-0.4,1.2-0.8,1.8-1.2c1.2-1,2.6-1.8,4.1-2.3c2-0.3,3.7-1.2,5.1-2.7c1.4-1.1,3.1-1.4,4.9-1.4c1.5-0.2,2.7-1,3.9-1.8
							c1.8-1.1,3.8-1.8,5.9-2.3c2.2-0.3,4.4-0.3,6.4-1.3c1.1-0.4,2.1-0.8,3.3-1.1c2.6-0.3,5.2-0.8,7.8-1.4c2.4-0.1,4.6-1.1,7-1.2
							c1.8-0.4,3.4,1,5.2,0.3c1.1,0,2.2-0.1,3.4-0.1c1.4,5.1,1.2,5.2-6.1,5.9c-1,0.4-2,0.8-3,1.2c-2.5-0.2-4.8,0.8-7.3,0.6
							c-1.8,0.7-3.6,1.3-5.6,1.1c-1.8,1.6-4.3,0.6-6.2,1.7c-3.9,1.2-7.7,2.4-11.6,3.6C110.5,87.8,109.1,88.2,108.5,89.8z"/>
						<path class="st9" d="M130.6,184.7c3.3,6.3,5.9,1.2,6.5-1.1c1-3.6,3.2-2.9,5.3-2.7c3.6,0.4,1.1,3,1.2,4.5
							c0.3,3.9-0.8,7.9,0.6,11.6c1.1,3-1.1,2.6-2.2,2.4c-1.4-0.2-4.3,1.1-3.7-2.5c0.3-1.9,0.3-3.8,0.5-7.2c-3.5,5.7-6.7,7.1-9.9,0.7
							c-1.2,3.8-0.1,6.4,0.9,9.5c-2.6,0-4.9,0-7.2,0c-1-0.6-0.9-1.4-0.3-2.3c0.3-0.2,0.4-0.4,0.3-0.8c1.5-4.1,1.7-8.2-0.1-12.3
							c-0.2-1.2-3-3,0.8-3.2c2.1-0.1,4.1-0.1,6.2-0.2C130.7,182,129.4,183.8,130.6,184.7z"/>
						<path class="st10" d="M97.2,199.9c-3.3-0.3-7.4,1.2-8.1-4.3c-0.2-1.2-2.3-3.1-3.6-2.2c-2.2,1.5-1.4,4-0.2,6.3
							c-4.4,0.7-8.2,1.6-6.7-5.6c0.8-3.9,1.4-8.5-2-13.2c6.8,0.6,12.9-1.4,18.3,2.7L97.2,199.9z"/>
						<path class="st11" d="M86.6,144.2c-1,0.4-2,0.8-2.9,1.2c-1.1-0.4-2.3,1.4-3.4-0.1c-0.4-1-0.2-1.8,0.7-2.4
							c0.7-1.5,2.1-2,3.6-2.3c1.7-0.2,3.5-0.4,5.2-0.9c1.5-0.4,3-0.4,4.5-0.5c3.9-0.1,7.8-1.6,11.8-1.1c2,0,4,0.2,5.9-0.3
							c0.5-0.2,1.1-0.3,1.6-0.4c2.2-0.3,4.5-0.4,6.7-0.8c0.6-0.1,1.2,0,1.8,0.1c3.7,0.8,7.4,0,11-0.8c6.4-0.3,12.7-0.1,19.1-0.2
							c7,0,13.9,0,20.9,0c4.8,0,9.6,0,14.4,0c2.4,0.7,6.9-1.3,5.9,4.2c-8.2,1.1-16.5-0.5-24.7,0.9c-13,0.4-26-0.4-38.9,0.4
							c-4.6,0.5-9.2,0.1-13.9,0.2c-5,0.8-10,1.3-15,1.2c-2.2,0.6-4.4,0.7-6.7,0.6c-1.1,0.1-2.1,0.4-2.6,1.5
							C89.8,144.4,88.2,144.1,86.6,144.2z"/>
						<path class="st12" d="M114.1,180.9c5.1,3.6,7,8.5,4.5,14.1c-2.4,5.5-7.6,5.4-12.6,4.5c-6-2.7-7.5-6.4-4.8-12.4
							c1.6-2.4,3.3-4.5,5.8-6C109.3,180.3,111.7,180.1,114.1,180.9z"/>
						<path class="st13" d="M209.6,106.5c0.4,0.3,0.9,0.6,1.3,0.9c-0.1,1.7,0.2,3.4-0.7,5c-0.4,0.5-0.9,0.8-1.4,1
							c-2.1,0.6-4.2,0.5-6.3,0.6c-2.1,0-4.2-0.1-6.3,0.2c-1.5,0.4-3.1,0.6-4.6,0.3c-4.3-1.1-8.9,0.4-13.2-1.2c-1.5-0.9-2-2.4-2.4-4
							c-0.2-1.7,0.2-3.1,2-3.8c6.7,0,13.3,0,20,0C201.8,105.8,205.9,104.3,209.6,106.5z"/>
						<path class="st11" d="M230.1,199.8c-3.3-0.6-7.1,1.8-7.9-3.7c-0.2-1.2-5.2-1.7-5.7,0.9c-0.8,4.4-3.7,2.1-6.1,3.2
							c2.7-6.2,5.6-11.6,5.6-17.8c0-2.2,1.1-1.6,2-1.5c2.1,0.3,5.8-1,5.9,1.3C224.4,188.4,228.1,193.3,230.1,199.8z"/>
						<path class="st14" d="M109.5,84c-1.8-0.8-3.4,0-5.2,0.2c-0.8,1.8-3,2-4.2,3.3c-1.7,0.4-3.4,0.8-5.2,1.2c2.1-4,6.2-5.6,9.5-8.2
							c2,1,3.3-1.1,5.1-1.2c2.2-1.2,4.4-2.3,6.7-3.5c2.2,0.1,4.1-0.9,6.1-1.6c1.6-0.4,3.7,0.5,4.5-1.8c0.4-0.1,0.8-0.1,1.3-0.2
							c2.1-0.4,4.6,0.2,5.9-2.2c0.4-0.1,0.8-0.1,1.2-0.2c2.8,0.8,5-1.1,7.5-1.6c1.9-0.1,3.7-0.9,5.6-0.6c2.7-0.7,5.6,1.2,5.2,2.8
							c-0.6,2.3-3.9,1.9-6.3,2.1c-1.1,1-2.7,0.9-4,1.5c-2.4-0.1-4.5,0.8-6.7,1.2c-2.9,0.2-5.6,1-8.3,1.8c-0.8,0.4-1.7,0.8-2.5,1.1
							c-2.4-0.2-4.6,0.6-6.8,1.2c-1.9,0.8-3.8,1.6-5.8,2.4C111.5,81.9,110.2,82.4,109.5,84z"/>
						<path class="st15" d="M159.9,188.4c-0.6,1.1,1.2,3.5-1.6,3.4c-2.3-0.1-4.9-0.4-3.9,2.9c0.9,2.9,3.4,1.4,5.3,0.9
							c0.5-0.1,1.1-0.3,1.6-0.5c0.9,1.2,0.9,2.4,0,3.6c-4.2,1.8-8.7,0.6-13.5,1.2c1.7-6.6,3.2-12.9-0.7-18.8
							c3.9-1.7,8.1-0.4,12.1-0.8c2-0.2,3,1.4,3.1,3.5c-0.2,2.6-2,2.8-4.1,2.7c-0.8,0-1.1,0.6-0.4,0.3c0.2-0.1,0.7,0.3,1,0.5
							C159.4,187.6,159.7,187.9,159.9,188.4z"/>
						<path class="st10" d="M273.5,181c-4.6,6.1-10.4,10.6-6.5,18.7c-4.1,0-9.1,2.6-6.8-5.2c0.9-3-1.8-5.4-3.7-7.6
							c-1.4-1.6-2.8-3.2-4.2-4.9c6.6-1.7,6.7-1.7,9.7,2.9c1.1,1.7,2.8,2.3,3.1-0.1C265.9,179.4,269.3,180.7,273.5,181z"/>
						<path class="st11" d="M234.7,199.4c2.2-6.1,0.1-12.1-0.6-18.2c0.6-0.1,1.1-0.3,1.7-0.4c4.8-0.8,7.8,0.1,6.1,6
							c-0.3,0.9-0.1,1.9-0.1,2.9c-0.1,7.2,0.5,7.6,7.2,5.4C249.1,200.5,247.3,201.1,234.7,199.4z"/>
						<path class="st16" d="M200.5,190.7c-0.1,3.1-0.1,6.1,3.2,8.9c-3.7,0-6.3,0-9.4,0c1.2-3.1,1.1-6.3,1-9.6
							c-0.1-3.7,0.2-7.9-5.3-3.4c-1.4-4.3-0.1-6,3.9-5.7c3.1,0.2,6.3,0,9.4,0.2c1.5,0.1,3.7-1.4,4.4,1.3c0.2,0.9,0.4,2.2-0.1,2.8
							c-1.5,1.8-2.9-1.6-4.6-0.4C200.6,186.2,202.1,189.1,200.5,190.7z"/>
						<path class="st17" d="M166.4,98.5c1.9-0.1,3.7-0.1,5.6-0.2c1.9,6.2-3.1,4.5-5.9,5.1c-3,0.1-6.1-0.7-8.9,1.1
							c-0.6,0.2-1.1,0.4-1.7,0.4c-2.3-0.3-4.6-0.4-6.9-0.3c-1.7,0-3.4,0.1-5,0.7c-1.7,0.4-3.4,0.5-5.1,0.5c-1.6,0-3.3,0.2-4.8,0.9
							c-1.3,0.5-2.6,0.9-4,0.9c-2.5-0.2-4.8,0.5-7.2,0.7c-2.2,0.4-4.3,1-6.6,1.3c-2.6,0.5-5,1.5-7.7,1.4c-0.6-0.1-1.1-0.4-1.5-0.9
							c-0.8-3.9,3.4-2.1,4.5-4c1.5-0.7,3.2-0.8,4.7-1.6c0.7-0.4,1.5-0.7,2.4-0.8c0.8,0,1.7,0,2.6-0.1c2.2-0.9,4.5-0.9,6.8-0.9
							c0.8,0,1.7,0,2.5-0.1c1.6-0.3,3.2-0.8,4.9-0.7c1.1,0,2.1-0.2,3.1-0.7c1.5-0.7,3.1-0.6,4.7-0.7c1-0.1,2-0.3,3-0.8
							c0.7-0.4,1.5-0.7,2.3-0.7c0.6,0.2,1.1,0.5,1.5,0.9C155.1,99.5,160.7,98.5,166.4,98.5z"/>
						<path class="st18" d="M177.2,181.4c5.5-1.6,8.4-0.9,6.7,5.7c-0.7,2.7,0.1,5.8,0.1,8.7c0,1.3,2.3,3,0,3.9
							c-1.5,0.6-3.6,0.6-5.2,0c-2.5-0.9,0-2.5-0.2-3.8C178.2,191.2,178.8,186.3,177.2,181.4z"/>
						<path class="st19" d="M101.2,187c-0.7,5,0.3,9.4,4.8,12.4c-1,2.8-2.5,2.7-4.1,0.6c-1.6-2.1-3-1.6-4.6-0.2
							c0-0.2,0.2-0.5,0.1-0.6c-3-4.1-5-8.4-2.2-13.5c0.3-0.6-0.1-1.5-0.2-2.3C97.7,183.5,99.2,185.7,101.2,187z"/>
						<path class="st20" d="M253.5,87.7c0.5,1.8-2,3-0.9,4.9c7.9-5.8,7.9-5.8,14-0.3c-4.2,2.1-9.5-0.3-13.6,3.2
							c-1.3,1.1-2.5-1.9-3.5-3.2c-1.6-2.2,2.7-4.4,0.2-6.8C251.9,84.7,252.2,87.1,253.5,87.7z"/>
						<path class="st21" d="M134.1,45.3c-5.5,1.8-10.7,4.7-16.7,4.7c-0.7,1.4-1.9,2-3.4,1.8c-0.8-0.3-1.5-0.8-1.2-1.8
							c5.8-3.6,12.4-5.2,18.8-7.4c2-0.7,3.8-1,4.9,1.4C135.9,44.8,134.7,44.4,134.1,45.3z"/>
						<path class="st22" d="M165,102c2.2-1.5,7.5,2.8,7-3.8c4.6,0.2,2.3,6.1,6,7.1c-1.1,0.9-1.1,2.2-1.1,3.5c-0.2,1-0.6,1.9-1,2.8
							c-0.3,0.7-0.6,1.4-1.1,2c-0.5,0.3-0.9,0.3-1.3-0.1c-0.4-2.8,0.4-6.6-4.6-5.7c-3.2,0.6-6.4,0.6-9.6,0c0.9-4.5,4.4-2.2,6.9-2.6
							c0.7-0.1,1.6,0.3,2.1-0.6c-0.6,0-1.1,0-1.7-0.1C165.3,104.2,164.6,103.4,165,102z"/>
						<path class="st23" d="M161.3,185.7c0.4-3.6-0.8-5.4-4.9-4.9c-3,0.4-6.2,0.2-9.2,0.3c6.5-3.8,15-3,17.5,1.4
							c0.8,1.4,1.6,4.1,1.2,4.1c-2.2,0-3.4,3.9-6,1.7l-0.1,0.1C159.3,187,160.5,186.5,161.3,185.7z"/>
						<path class="st24" d="M80.8,106.8c0.6-0.1,1.2-0.2,1.8-0.3c3-0.9,3,1.5,3.3,3.2c0.4,2.2,0.4,4.5-0.4,6.7
							c-0.7,1.4-1.8,2-3.3,1.9C79.7,114.6,81.3,110.6,80.8,106.8z"/>
						<path class="st25" d="M274.7,144.3c-1.2-0.1-2.4-0.1-3.6-0.1c-3.9-3.3-3.4-6.9-0.9-10.7c1,0.1,2.3-1.6,3.1,0.4
							c-0.6,1.5,0.7,2.9,0.2,4.3c-0.1,0.2-0.1,0.4-0.1,0.5c0,0.7,0.2,0.7,0.4,0c0.6-0.5,1.3-0.6,2-0.4
							C275.9,140.4,275.9,142.4,274.7,144.3z"/>
						<path class="st26" d="M84.4,141.7c-1.2,0.4-2.3,0.8-3.4,1.1c-0.9-1.1-0.5-2.3,0-3.5c3.8-3.3,0.8-8.1,2.5-11.9
							c0.1-0.1,0.3-0.3,0.4-0.3c0.3,0.1,0.5,0.3,0.8,0.5c1.6,2,1.2,4.4,1.5,6.6c0.1,1.4,1.1,2.5,1.3,3.9
							C87.4,140.2,85.6,140.7,84.4,141.7z"/>
						<path class="st27" d="M217.8,67.5c3.2-3.9,5.5-1.5,7.7,1.1c-0.5,0.3-1.1,0.4-1.5,0.8C220.4,73.6,218.6,72.2,217.8,67.5z"/>
						<path class="st28" d="M145.6,79.4c1.8-2.2,8.8,0.9,6.1-5.9c3.1,1.2,5.4,2.6,2.1,6C151.1,78.3,148.3,82.1,145.6,79.4z"/>
						<path class="st29" d="M166.4,98.5c-6,0.5-11.8,3.5-17.9,1c0.4-0.4,0.7-0.4,1.1,0c2.6-0.4,5.3-0.9,7.9-1c1.8-0.1,3-0.4,2.8-2.5
							C161.6,98.4,164.1,98,166.4,98.5z"/>
						<path class="st30" d="M209.6,106.5c-3.9-0.3-8,0.8-11.7-1.1c0-0.4,0-0.8,0-1.2c2.9,0,5.8,0.1,8.7,0.1
							C208.2,104.3,209.9,104,209.6,106.5z"/>
						<path class="st31" d="M122.4,184.5c3.2,3.5,3.2,8.9,0.1,12.3C122.4,192.7,122.4,188.6,122.4,184.5z"/>
						<path class="st32" d="M165.9,39.3c0.1,2.3-0.7,4.3-2.2,6.1c-0.3-0.7-0.5-1.4-1-2c-1-1.3-2.8,2.8-3.2-0.2
							c-0.3-1.7,0.9-3.6,3.6-3.2C164,40.2,165,39.6,165.9,39.3z"/>
						<path class="st33" d="M93.2,90c-1.3,2-2.5,4-4.9,4.7c-1.3,0-2.6-0.1-3.8-0.1C87.4,93.1,88.7,88.5,93.2,90z"/>
						<path class="st34" d="M208.6,56c1.3,0.2,2.2,1,2.9,2c-2.6,0.7-1.4,6.2-4.3,4.8c-4.6-2.2,2.9-3.7,1.1-6.3
							C208.3,56.4,208.5,56.1,208.6,56z"/>
						<path class="st35" d="M102.6,59.5c-2.8,0.5-3.7,5.4-7.6,3.3c1.2-2.8,3.7-4.3,6.1-5.8C102.2,57.4,102.8,58.2,102.6,59.5z"/>
						<path class="st36" d="M110.7,53.6c-2,1.5-4.1,3-6.1,4.5c-0.8-0.7-1.5-1.4-1.5-2.5c1.8-1.7,3.7-3.1,6.1-3.7
							C110,52.3,110.6,52.8,110.7,53.6z"/>
						<path class="st21" d="M92.6,66c-0.5,3.6-3,5.6-5.8,7.5C86.9,69.5,88.6,66.9,92.6,66z"/>
						<path class="st32" d="M160.1,33.4c2.1,0.9,4.7,0.8,5.6,3.6C162.2,38.3,159.8,37.9,160.1,33.4z"/>
						<path class="st37" d="M82.1,118.2c0.4-1.1,1.3-1.2,2.2-1.1c0.8-0.7,1.6-0.7,2.5-0.3c0.7,0.7,0.8,1.6,0.6,2.5
							c-1.1,1.4-1.9,3.1-4.1,2.5C82.9,120.6,82.5,119.4,82.1,118.2z"/>
						<path class="st38" d="M200.5,190.7c0.2-2.2-2.1-5.4,2.4-5.8C202.2,186.8,203.6,189.7,200.5,190.7z"/>
						<path class="st34" d="M212.1,58.4c3.9,1.7,2.9,4.2,1.2,6.9C214.3,62.7,210.5,61,212.1,58.4z"/>
						<path class="st39" d="M110.7,53.6c-0.5-0.5-1-1.1-1.5-1.6c1-1.2,2.2-1.7,3.7-2c0.4,0.4,0.9,0.8,1.3,1.2
							c0.5,0.6,0.5,1.2,0.2,1.9C113.2,53.3,111.9,53.4,110.7,53.6z"/>
						<path class="st40" d="M83.3,121.8c0.7-1.2,1.1-2.9,3.1-2.5c1.5,0.2,2,0.9,1.5,2.4c-1.2,1.5-2.7,2.1-4.6,1.7
							C83.3,122.9,83.3,122.3,83.3,121.8z"/>
						<path class="st32" d="M148.3,67.7c-1.7,1.6-4,0.8-5.9,1.4c-0.3-0.3-0.4-0.6-0.2-0.9c0.1-0.3,0.2-0.4,0.3-0.4
							c1.9-0.5,3.9-0.9,5.8-1.4C148.3,66.8,148.3,67.3,148.3,67.7z"/>
						<path class="st41" d="M143.5,73.3c1.1-1.1,2.4-0.9,3.7-0.8c0.4,0.4,0.8,0.7,1.1,1.1c-1.5,1.1-3.2,1.2-4.9,0.9
							c-0.4-0.3-0.5-0.5-0.4-0.8C143.3,73.4,143.4,73.3,143.5,73.3z"/>
						<path class="st31" d="M114.1,180.9c-2.4,0.1-4.7,0.1-7.1,0.2C109.3,180,111.6,177.8,114.1,180.9z"/>
						<path class="st42" d="M103.1,55.6c1.2,0.4,1.5,1.4,1.5,2.5c-0.7,0.4-1.3,0.9-2,1.3c-0.5-0.8-1-1.6-1.5-2.4
							C101.7,56.6,102.4,56.1,103.1,55.6z"/>
						<path class="st43" d="M275.7,138.3c-0.7,0.4-1.3,0.8-2,1.1c-1.1-1.6-1.1-3.2,0-4.8c0.4-0.1,0.7,0,1.1,0.1
							C276.6,135.6,275.9,137,275.7,138.3z"/>
						<path class="st44" d="M130.6,184.7c-1.6-0.8-0.6-2.5-1.2-3.6C134.9,180.6,130.5,183.4,130.6,184.7z"/>
						<path class="st45" d="M80.2,145.3c1.1,0,2.3-1.9,3.4,0.1c-1.3,0.8-2.5,1.6-3.8,2.4C79.4,146.9,78.8,145.9,80.2,145.3z"/>
						<path class="st46" d="M161.3,198.8c0-1.2,0-2.4,0-3.6c1-0.2,2-0.4,2.2,1C163.9,197.9,163,198.7,161.3,198.8z"/>
						<path class="st47" d="M134.1,45.3c0.4-1.3,1.4-1.3,2.4-1.3c2.6-0.2,2.5,1.7,2.4,3.4C137.7,46,136.4,44.4,134.1,45.3z"/>
						<path class="st31" d="M122.2,197.6c0.1,0.8,0.2,1.5,0.3,2.3c-1.7-0.5-3.1-1.7-2.3-3.3C120.8,195.4,121.4,197.5,122.2,197.6z"
							/>
						<path class="st48" d="M86.8,73.4c-0.1,1.3-1.2,1.3-2.1,1.3C84.5,72.9,85.8,73.4,86.8,73.4z"/>
						<path class="st11" d="M192.1,113.6c1.2-0.4,2.4-0.8,3.6-1.1c1.4,1.1,3.1,0.2,4.5,0.7c3.1,0.8,6.3-0.4,9.3,1
							c1.4,0.9,1.1,2.9,2.4,3.9c0,1.2,0,2.4,0.1,3.6c1.3,1.6,2.9,3.1,3.5,5.1c0.5,2.2,1.2,4.3,0.4,6.6c-2.8,2.7-6,2.1-9.3,1.1
							c-2.8-2.1-1.9-5.3-2.1-8.1c-0.2-2.8-0.5-5.6-3.5-6.9c-3.1-1.3-5.7-0.4-7.8,2.1c-1.7,2.2-0.4,5.4-2.3,7.5
							c-0.9,0.5-1.7,0.5-2.6,0.1c-2.1-2.1-0.9-5.2-2.2-7.5c-1.2-2.1-2.9-3-5.3-2.7c-1.9,0.2-4,0.7-4.9-1.9c-1.1-1.7-0.7-2.9,1.3-3.5
							C182.3,113.7,187.2,112,192.1,113.6z"/>
						<path class="st49" d="M185.1,148.8c-4.3-3.3-6-0.2-7.1,3.1c-0.6,1.8-0.3,3.9-0.4,5.8c0,1.2-0.5,1.8-1.7,1.8
							c-1,0-2,0.2-2.6-0.8c-1.9-2.8,1.8-13.4,5.1-14.4c3.3-0.9,6.2-0.3,7.8,3.2C186.8,148.9,186.2,149,185.1,148.8z"/>
						<path class="st50" d="M241.6,128.9c-0.2-2.4,0.4-4.6,3.2-4.5c2.4,0.1,3.8,2.2,3.9,4.5c0.2,3.5,0.7,7.2-0.1,10.6
							c-1.1,4.4-4.2,3-6.9,1.2c3-3.5,2.7-7.3,1-11.1C242.2,129.4,241.8,129.2,241.6,128.9z"/>
						<path class="st51" d="M195.4,152.4c-2.9-3.1-2.6-6.8-2.2-10.5c0.4-0.3,0.9-0.2,1.3,0.1c0.3,0.4,0.3,0.9,0,1.3
							c-0.1,3.5,2.6,1.9,4.2,2.1c6.2,0.9,10,7.1,7.6,12.9c-1,2.2-2.5,1.8-3.8,0.1c-1-1.2-1.1-2.8-1.4-4.3
							C200.3,150.2,198.4,149.3,195.4,152.4z"/>
						<path class="st52" d="M129.2,147.8c-4.4,1.5-2.5,5.4-3.2,8.3c-0.3,1.5,0.8,3.7-2.1,3.8c-3.2,0.1-2.7-2.2-2.6-4
							c0.3-3.5-0.7-7.1,3-9.9c3.4-2.6,5.1-2,6.4,1.7C130.3,148.3,129.8,148.4,129.2,147.8z"/>
						<path class="st53" d="M115.1,149.1c-2.3,2.3-2,5.2-2.1,8.1c-0.1,1.4,0.1,2.8-1.9,2.9c-1.9,0.1-2.3-1-2.3-2.6
							c0-2.3-0.3-4.7,0-7c0.7-5.3,3.2-6.2,7.7-2.8C116.8,149,116.2,149.3,115.1,149.1z"/>
						<path class="st54" d="M91.6,155c0.4-2.9-0.5-7.7,2.6-7.7c3.8,0,3,4.7,2.9,7.6c-0.1,2,1.4,5.3-2.1,5.7
							C89.8,161.2,92.5,157,91.6,155z"/>
						<path class="st49" d="M103.6,159.6c-3,1.8-5.2,2-4.9-2.6c0.1-2.1,0-4.3,0.1-6.5c0.1-2.1,0.9-3.9,3.3-4.2
							c2.6-0.3,3.3,1.6,3.5,3.7c-0.8,0.9-1,1.9-1,3C104.4,155.2,105.1,157.6,103.6,159.6z"/>
						<path class="st55" d="M129.2,140.6c13.1-1.6,26.2-1,39.3-0.9c0.7,0.7,2,0.1,2.5,1.2c-7.5,1.8-15.2,0.8-22.8,0.8
							c-2.6-0.9-5.3-0.2-7.9-0.4C136.7,140.9,132.8,142.1,129.2,140.6z"/>
						<path class="st56" d="M232.2,127c-2.4-2.2,0.2-2.6,1.3-2.9c2.1-0.7,3.7,0.6,4.1,2.3c1.2,4.2,1.1,8.7,0.1,12.8
							c-0.7,3.2-4.3,1.1-6.6,1.3c-0.3-0.9,0.2-1.5,0.7-2.1C234,134.5,233.3,130.8,232.2,127z"/>
						<path class="st57" d="M164.6,146.2c-6.9-0.7-7.9,3.6-7.9,9c0,1.5,1.4,4.6-1.9,4.3c-3-0.2-1.6-3.1-1.6-4.7
							c-0.1-8.7,3-11.8,9.8-10.5C163.9,144.4,164.3,145,164.6,146.2z"/>
						<path class="st32" d="M142.4,146.6c-2.1,2.9-1.7,6.3-2,9.5c-0.1,1.6,0.7,3.7-2.3,3.6c-3-0.1-2.2-2.4-2-3.9
							c0.6-3.7-1.7-8.5,3.6-10.6C141.1,144.8,142.5,144.2,142.4,146.6z"/>
						<path class="st58" d="M195.4,152.4c0.9-1.4-1.6-4.5,1.7-4.4c2.2,0.1,5,1.1,5.3,4.1c0.3,2.1,0,4.2,0,6.3
							C197.8,159.1,198,154.2,195.4,152.4z"/>
						<path class="st59" d="M212.6,148.7c3.4-3.4,6.5-2.3,8.4,0.5c1.9,2.9,2,6.6,1,10.1c-0.1,0.4-1.4,0.6-2.1,0.5
							c-1.6-0.4-1.1-1.8-1.1-2.9C218.5,152.9,219.4,148.3,212.6,148.7z"/>
						<path class="st60" d="M220.1,125.3c0.7-2.3,2.3-3,4.5-2.5c1.9,0.5,2.8,2.1,2.9,3.9c0.1,3.5,0,6.9,0,10.4
							c-0.4,0.4-0.9,0.5-1.4,0.3c-1.3-0.9-2.7-1.5-3.7-2.8c-0.6-2.7,1.1-5.7-1.5-8C220.6,126.2,220.3,125.8,220.1,125.3z"/>
						<path class="st61" d="M251,128.9c1.6-4.9,3.3-2.4,4.9,0c2.1,3.6,2.4,7.1-0.1,10.6l0,0.1c-3.2,1.3-4.6-0.1-4.7-3.3
							c0-1.5,0-3,0-4.5C251.1,130.8,251.1,129.9,251,128.9z"/>
						<path class="st62" d="M261.6,140.5c-1.1,0-2.1,0.1-3.2,0.1c-1.4-3.9-1.4-7.8-0.4-11.7c4.8-3.2,3.8,1.6,4.9,3.5
							C263.8,135.3,264.6,138.2,261.6,140.5z"/>
						<path class="st63" d="M221.8,125.5c3.9,2.7,3,5.9,1.1,9.2c-1.8,1.4-3.3,0.4-4.9-0.4c-0.7-0.5-1.2-1.3-1.5-2.1
							c-0.5-2.1-0.1-4,1.5-5.6c0.4,0,0.8-0.1,1.2-0.1c1,0.8,0.8,1.7,0.5,2.7C220,127.8,219.8,126,221.8,125.5z"/>
						<path class="st64" d="M89.4,146.3c1.6,5.4,0.8,9.2,0.8,12.9c0,0.8-0.5,1.5-1.4,1.6c-1.2,0.1-1.8-0.7-1.8-1.8
							C87.1,155.2,86.4,151.2,89.4,146.3z"/>
						<path class="st65" d="M251.1,154.8c0.2-2.1,0.3-5,3.1-4.6c2.7,0.4,2.7,3.5,2.7,5.8c0,2.3,0.9,5.5-3.4,4.7
							C251.5,159.2,252.4,156.6,251.1,154.8z"/>
						<path class="st66" d="M231.1,118.1c-0.1-3.4,1.8-4.2,4.5-3c2.5,1.1,2.9,3.6,1.9,6c-1.2,2.9-3,3.2-5.1,0.8
							C232.2,120.5,232.4,119.1,231.1,118.1z"/>
						<path class="st67" d="M232.5,149.3c2.4-1.1,4.4-0.6,5.1,1.5c0.9,2.7,0.8,5.7,0.2,8.5c-0.1,0.3-0.9,0.6-1.4,0.5
							c-1.5-0.1-1.7-1.2-1.7-2.5C234.5,154.6,235.6,151.5,232.5,149.3z"/>
						<path class="st56" d="M261.6,160.6c-2.6,0.6-3.7-0.5-3.4-3.1c0.3-2.2-1-5.8,1.5-6.3c3.2-0.7,1.6,3,2.3,4.7
							C263.2,157.6,263,159.2,261.6,160.6z"/>
						<path class="st68" d="M258,128.9c0.6,3.9,1.5,7.8,0.4,11.7c-0.8-0.4-1.7-0.7-2.5-1.1c0-3.6,0.1-7.1,0.1-10.6
							C256.6,128.9,257.3,128.9,258,128.9z"/>
						<path class="st69" d="M249.5,159.3c-0.2,0.1-0.5,0.2-0.8,0.3c-2.2,1.2-2.7,0-2.9-1.9c-0.1-1.3,0.2-2.7-0.4-4
							c-0.4-1.2-0.7-2.6-2.5-2.2c-0.4,0.3-0.8,0.2-1.1-0.2c3.3-5.3,5.1-1.3,7.1,1.2C249.1,154.7,250.6,156.9,249.5,159.3z"/>
						<path class="st26" d="M263.9,132.4c0.2-0.8,0.3-1.9,1.4-2c1.3-0.1,1.1,1.1,1.3,1.9c2,4,2.1,8.1-0.2,12c-0.8,0-1.7,0-2.5,0
							C263.2,140.3,262.6,136.3,263.9,132.4z"/>
						<path class="st19" d="M129.2,140.6c3.9,0.9,7.8,0.2,11.7,0.3c0.5,0,0.7,0.2,0.6,0.4c-0.1,0.3-0.2,0.4-0.3,0.4
							c-8.6,0.1-17.3,0.2-25.9,0.2c-0.3-0.2-0.4-0.5-0.3-0.7c0.1-0.2,0.2-0.3,0.3-0.3C119.9,140.8,124.6,140.7,129.2,140.6z"/>
						<path class="st70" d="M232.2,127c3.6,3.5,3.7,10.3,0.1,12.5c-0.5-0.5-0.9-1.2-1-1.9c0.7-3.5-1.3-7.2,1-10.5L232.2,127z"/>
						<path class="st71" d="M171,140.9c-0.9-0.4-1.7-0.8-2.5-1.2c8.2-0.2,16.4-0.4,24.6-0.6c0.5,0.7,0.5,1.4,0,2
							C185.7,141.1,178.4,141,171,140.9z"/>
						<path class="st72" d="M242.9,128.9c3.4,3.7,2.8,10.2-1.2,11.7c-0.1-0.2-0.1-0.4-0.1-0.7C243.2,136.4,241.1,132.4,242.9,128.9z
							"/>
						<path class="st73" d="M266.5,144.3c0.1-4,0.1-8,0.2-12c0.7,0,1.4,0.1,2.1,0.1c1,3.9,1,7.9,0,11.9
							C268,144.3,267.3,144.3,266.5,144.3z"/>
						<path class="st74" d="M115.3,140.9c0.1,0.3,0.1,0.7,0,1c-4.9,2.2-10.2,0.8-15.3,1.4c-0.3-0.3-0.4-0.6-0.3-0.9
							c0.1-0.3,0.2-0.4,0.3-0.4C105,141.7,110.2,141.3,115.3,140.9z"/>
						<path class="st75" d="M249.5,159.3c-0.2-2.3-0.4-4.6-0.6-6.8c1.6-0.1,0.2,2.9,2.3,2.3c3.3,1,0.9,4.2,2.4,5.9
							C251.9,161,250.8,159.9,249.5,159.3z"/>
						<path class="st76" d="M266.5,160.8c-0.8,0-1.6,0-2.4-0.1c-1.9-2.3-0.7-4.7-0.2-7.1c0.5-1.5,0.5-4,2.9-1.3
							C267.6,155.2,270,158,266.5,160.8z"/>
						<path class="st77" d="M264.9,121.8c2.1,0.2,2.8,1.4,2.6,2.8c-0.1,1.5,1,3.9-1.8,4c-1.7,0.1-2-1.5-2-2.9
							C263.8,124.3,263.7,122.7,264.9,121.8z"/>
						<path class="st78" d="M246.4,105.3c0.1,0.8,0.5,1.6,0.3,2.3c-0.4,1.6,1.2,4.3-1.9,4.6c-2,0.2-1.4-1.2-1.6-2.6
							c-0.3-2.8-1-5.1,3.2-4.2C246.6,105.4,246.4,105.3,246.4,105.3z"/>
						<path class="st79" d="M232.2,127.1c-0.2,3.8-0.3,7.5-0.5,11.3c-1.6,0-1.1-1.6-1.7-2.3C231.5,133.3,227.3,129.1,232.2,127.1z"
							/>
						<path class="st80" d="M242.9,128.9c-0.7,3.6,1.2,7.6-1.3,11c-0.8-3.7-2.1-7.4,0-11.1C242,128.9,242.4,128.9,242.9,128.9z"/>
						<path class="st81" d="M226.1,143.3c-5.9-0.1-11.7-0.3-17.6-0.4c-0.3-0.8,0-1.4,0.7-1.8c5.7-1.3,11.3-1.8,16.9,0.4
							C226.8,142.1,226.7,142.7,226.1,143.3z"/>
						<path class="st82" d="M263.9,132.4c0,4,0.1,7.9,0.1,11.9c-2.1-0.4-0.5-3.2-2.4-3.8c0.5-2.7,0.9-5.4,1.4-8.1
							C263.3,132.4,263.6,132.4,263.9,132.4z"/>
						<path class="st83" d="M166.8,159.8c-0.9-3.5-1.5-6.2,1.4-9.1C168.1,153.9,169.4,156.7,166.8,159.8z"/>
						<path class="st84" d="M260.9,118.5c-1.1-0.4-1.3-0.4-1.5-0.5c-2-2.1-1.3-4.5-0.4-6.8c0-0.1,1.3-0.1,1.5,0.2
							C261.9,113.7,260.6,115.9,260.9,118.5z"/>
						<path class="st85" d="M252.2,130.1c0.1,2.3,0.4,4.6,0.2,6.8c-0.2,2.8,1,3.3,3.4,2.6c-2,1.7-4,1.9-5.9-0.1
							c1.2-2.3,0.3-4.8,0.6-7.2C250.7,131.2,250.4,129.8,252.2,130.1z"/>
						<path class="st22" d="M268.8,144.3c0-3.9,0-7.9,0-11.9c1.8-1.6,1.1,0.5,1.4,1c-0.4,3.6-0.6,7.3,0.9,10.7
							C270.4,144.9,269.6,145.5,268.8,144.3z"/>
						<path class="st86" d="M217.9,126.6c0.9,2-0.4,3.8-0.6,5.6c-0.4,0.4-0.9,0.5-1.4,0.2c-0.8-1.9-2.2-3.6-1.4-5.9
							c0.5-0.8,1-1.6,2.2-1.1C217,125.8,217.4,126.2,217.9,126.6z"/>
						<path class="st87" d="M273.4,153.8c-1.1,2.2,2.5,5.9-2.2,6.9C269,155.4,269.3,154.5,273.4,153.8z"/>
						<path class="st83" d="M242.7,154.9c-0.1,1.6,0.9,4.2-1.4,4.4c-3.2,0.2-1.6-2.7-1.9-4.4C240.5,153.9,241.6,153.9,242.7,154.9z"
							/>
						<path class="st88" d="M208.6,142c0,0.3,0,0.6,0,0.9c-4.7,0.1-9.4,0.3-14,0.4c-0.2-0.4-0.3-0.8-0.5-1.2c0.4-0.6,0.9-1,1.6-1.2
							C200.1,140.3,204.5,139,208.6,142z"/>
						<path class="st89" d="M209.8,112.4c0.1-1.8-0.5-3.7,1.2-5.1c1.9,3.1,0.9,6.5,0.9,9.8C209.4,116.3,210.3,114.1,209.8,112.4z"/>
						<path class="st90" d="M115.1,149.1c0.4-0.5,0.9-0.9,1.3-1.4c2.4,3.6,0.8,7.4,1,12.2C115.3,155.9,117.4,152.1,115.1,149.1z"/>
						<path class="st91" d="M266.5,160.8c1.6-2.8-0.2-5.6,0.2-8.5c0.6,0.4,1.3,0.8,1.9,1.2c2,2.4,1.6,4.8,0.1,7.2
							C268,160.8,267.3,160.8,266.5,160.8z"/>
						<path class="st92" d="M193.1,141.2c0-0.7,0-1.4,0-2c-0.9-3.6-3.9-1.3-5.8-2.2c-0.3-0.6-0.2-1.1,0.3-1.5c1.9-1,3.8-1.4,5.9-1
							c0.8,0.4,1.4,1.1,1.8,2c0.6,1.8,0.7,3.6-0.6,5.3c-0.2,0.1-0.4,0.2-0.6,0.4c-0.3,0-0.5-0.1-0.8-0.1l-0.3-0.3L193.1,141.2z"/>
						<path class="st93" d="M216.6,125.4c-0.7,0.4-1.4,0.8-2.2,1.1c-1.7-1.2-2.8-2.7-2.4-4.9C213.9,122.5,217,121.8,216.6,125.4z"/>
						<path class="st94" d="M83.2,160.4c0-3.7,0-7.4,0-11.1C85,153,84.4,156.7,83.2,160.4z"/>
						<path class="st95" d="M99.9,142c0,0.4,0,0.9,0,1.4c-2.1,1.1-4.1,1.5-5.9-0.3C95.8,141.6,97.8,141.7,99.9,142z"/>
						<path class="st59" d="M222.7,104.1c1-1.3,2.3-1.3,2.3,0.3c0,1.5,2,4.6-2.1,4.4C221.5,107.3,221.5,105.7,222.7,104.1z"/>
						<path class="st96" d="M263.9,153.6c0.1,2.4,0.2,4.7,0.2,7.1c-0.9,0-1.7-0.1-2.5-0.1c0.1-1.6,0.3-3.1,0.4-4.7
							C262.6,155.1,263.2,154.4,263.9,153.6z"/>
						<path class="st97" d="M252.2,130.1c-3.4,2.5,1,6.8-2.3,9.3c0.3-3.5-0.8-7.2,1.1-10.6C251.8,129,252.3,129.3,252.2,130.1z"/>
						<path class="st98" d="M147.4,158.4c0-2.8,0-5.6,0-10.1C148.6,152.9,148.5,155.9,147.4,158.4z"/>
						<path class="st99" d="M222.7,104.1c0.1,1.6,0.1,3.1,0.2,4.7c-4,0.4-2.4-2.7-2.4-4.3C220.4,102,221.9,104.1,222.7,104.1z"/>
						<path class="st100" d="M273.4,153.8c-4.4,1.1-1.3,4.7-2.2,6.9c-0.4,0-0.8,0-1.2,0c-0.9-2.8-0.9-5.5,0-8.2
							C271.2,152.7,273,151.6,273.4,153.8z"/>
						<path class="st22" d="M226.1,143.3c0-0.5,0-1.1,0-1.6c-1.2-1.6-1.2-3.1,0.4-4.5c0.3,0,0.6,0,0.9,0c0,3.5,0.1,7.1,0.1,10.6
							c-0.4,0.5-0.7,0.4-1-0.1C226.4,146.2,226.3,144.7,226.1,143.3z"/>
						<path class="st101" d="M242.7,154.9c-1.1,0-2.2,0-3.3,0c-0.2-1.9,0-3.4,2.4-3.6c0.4,0,0.8,0.1,1.1,0.2
							C242.8,152.6,242.8,153.8,242.7,154.9z"/>
						<path class="st102" d="M273.7,134.7c0,1.6,0,3.2,0,4.8c-0.2,0.9-0.3,1.7-0.5,2.6c-0.7-2.8-1.7-5.6,0.1-8.3
							C273.5,134,273.7,134.3,273.7,134.7z"/>
						<path class="st103" d="M211.2,159.1c0-2.8,0-5.6,0-8.5C212.4,153.4,212.3,156.2,211.2,159.1z"/>
						<path class="st44" d="M270,152.5c0,2.8,0,5.5,0,8.2c-0.4,0-0.8,0-1.2,0.1c0-2.4-0.1-4.8-0.1-7.2
							C269.1,153.2,268.5,151.6,270,152.5z"/>
						<path class="st104" d="M142.4,146.6c-0.5-1.1-1.6-1-2.6-1.3c2.6-2.1,4.4-0.6,6.7,1C144.8,148.2,143.6,145.8,142.4,146.6z"/>
						<path class="st105" d="M245.4,153.7c2.2,1.4-0.6,5.5,3.4,5.9c-2,1.6-3.3,1.2-3.4-1.4C245.2,156.7,245.3,155.2,245.4,153.7z"/>
						<path class="st106" d="M226.6,147.6c0.4-0.1,0.7-0.1,1,0.1c0.8,1.9,1.7,3.9,2.5,5.8c-0.5,0.5-1,0.5-1.5,0.1
							C227,152,227.2,149.7,226.6,147.6z"/>
						<path class="st107" d="M103.6,159.6c0-2.7,0.1-5.3,0.1-8c2.9,0.1,0.9,2.4,1.5,3.5c-0.2,1.5,0.6,3.2-0.8,4.5
							C104.1,159.6,103.8,159.6,103.6,159.6z"/>
						<path class="st21" d="M231.1,118.1c0.7-0.1,1.4-0.2,2.1-0.3c0.2,1.4,0.9,3-0.8,4.1C230.8,121,231,119.5,231.1,118.1z"/>
						<path class="st108" d="M86.6,144.2c1.7-1.9,3.3-1.4,4.8,0.3C89.7,145.1,88,146.6,86.6,144.2z"/>
						<path class="st109" d="M129.2,147.8c0.5,0,1-0.1,1.5-0.1c1.9,2,0.8,4.2,1.1,7.7C129.9,152.4,131.4,149.4,129.2,147.8z"/>
						<path class="st110" d="M185.1,148.8c0.4-0.4,0.8-0.8,1.1-1.2c2.1,1.9,0.6,4.3,0.4,6.6C186.2,152.4,185.7,150.6,185.1,148.8z"
							/>
						<path class="st111" d="M141.2,141.7c0-0.3-0.1-0.6-0.3-0.8c2.5,0.1,5.1-1,7.4,0.8C145.9,141.7,143.5,141.7,141.2,141.7z"/>
						<path class="st103" d="M209.8,112.4c2,1,0.5,3.5,2,4.7c0.1,0.3,0.2,0.6,0.2,1c-2.9,0.5-2-1.8-2.4-3.1
							C209,114,209,113.2,209.8,112.4L209.8,112.4z"/>
						<path class="st112" d="M230,136.1c0.6,0.8,1.2,1.5,1.7,2.3c0.2,0.4,0.3,0.7,0.5,1.1c-0.4,0.3-0.7,0.6-1.1,0.9
							C228.8,139.5,230,137.6,230,136.1z"/>
						<path class="st113" d="M228.6,153.7c0.5,0,1-0.1,1.5-0.1c0.6,0.7,1.6,1.3,0.7,2.4c-0.3,0.4-1,0.4-1.6,0.5
							C229,155.5,228.8,154.6,228.6,153.7z"/>
						<path class="st114" d="M104.7,154.8c-0.4-1.1,0.4-2.5-1.1-3.2c0.2-1.1,1.2-1.2,2-1.6c0,1.6,0,3.2,0.1,4.8
							C105.3,155.4,105,155.4,104.7,154.8z"/>
						<path class="st91" d="M104.7,154.8c0.3,0,0.6,0.1,0.9,0c-0.4,1.6,1.9,3.9-1.2,4.8C104.5,158,104.6,156.4,104.7,154.8z"/>
						<path class="st115" d="M221.8,125.5c-0.7,1.1-1.5,2.1-2.2,3.2c-0.2-0.7-0.4-1.5-0.5-2.2c0.3-0.4,0.7-0.8,1-1.2
							C220.6,125.4,221.2,125.4,221.8,125.5z"/>
						<path class="st29" d="M116.2,66.8c-1.6,1.6,0.9,6-3.3,5.4c-2.5-0.3-0.7-2.9-0.9-4.4c-0.3-2.4,1.1-3.8,3.4-3.6
							C117.2,64.2,116.4,65.7,116.2,66.8z"/>
						<path class="st116" d="M87.7,85.1c0.1,0,0.2,1.1,0.2,2.3c0,1.2,0,2.3-1.5,2.5c-1.7,0.2-1.8-0.9-1.8-2.1
							C84.5,86.6,84.5,85.5,87.7,85.1z"/>
						<path class="st117" d="M142.5,67.8c0,0.4,0,0.9-0.1,1.3c-2.4,0.5-4.5,3.4-7.2,0.8C137.7,69.5,139.7,67.3,142.5,67.8z"/>
						<path class="st118" d="M97,74.5c0.5,2.8,1.2,5.1-1.4,7.3C95.1,79.1,94.2,76.9,97,74.5z"/>
						<path class="st119" d="M122.3,74.7c-1.9,1.2-3.7,2.8-6.1,1.2c2-0.8,3.7-2.4,6.1-2.1c0.4,0.2,0.5,0.4,0.4,0.6
							C122.6,74.6,122.4,74.7,122.3,74.7z"/>
						<path class="st120" d="M133.9,70.1c-0.8,3.8-3.3,3.1-5.9,2.2C129.5,70.2,132.3,71.7,133.9,70.1z"/>
						<path class="st121" d="M109.5,79.4c-1.6,0.9-2.7,3.7-5.1,1.2C106.2,80.3,107.5,78.2,109.5,79.4z"/>
						<path class="st122" d="M122.3,74.7c0-0.3,0-0.6,0-0.9c1.5-0.4,3-0.8,4.5-1.3C126.6,75.8,124,74.4,122.3,74.7z"/>
						<path class="st123" d="M114.4,53.1c-0.1-0.6-0.1-1.3-0.2-1.9c1.1-0.4,2.2-0.8,3.2-1.2C118.3,52.8,115.5,52.1,114.4,53.1z"/>
						<path class="st13" d="M193.1,134.5c-1.4,2.4-3.9,1-5.8,1.6c-3.7,1-7.5,0.2-11.3,0.4c-9,0.3-18.1-1.1-27.1,0
							c-5.6,0.1-11.1,0-16.7,0c-3.8,0.8-7.6,0.6-11.4,0.6l-0.4,0l-0.4,0c-2.2,1.5-5-0.4-7.2,1.2l0.1-0.1c-2.9,1-5.9-0.8-8.8,0.6
							c-3.4-0.1-6.7,0.4-10.1,1c-1.9,0.3-3.7,0.2-5.6,0.2c-0.6-0.3-0.9-0.9-0.8-1.6c0.3-0.9,0.9-1.6,1.7-2.1
							c4.4-2.2,9.5-1.2,14.1-2.6c0.6-0.1,1.2-0.2,1.8-0.2c0.6,0,1.1,0,1.7,0c1.5,1.3,2.9,0,4.4-0.2c5.8-0.4,11.6-0.5,17.2-2.1
							c2.7-0.6,5.2,1.2,7.9,0.5c2.8-1.4,5.9-0.8,8.8-0.9c2.5,0.1,5.1,0.9,7.6-0.1c0.6-0.3,1.2-0.5,1.9-0.6c1-0.3,2-0.4,3-0.4
							c10.8,0.6,21.6,0.5,32.3,0.4c0.7,0,1.3,0,2,0.1c1.4,0.4,2.2,1.2,2.6,2.6C194.8,133.9,194.1,134.4,193.1,134.5z"/>
						<path class="st85" d="M166,103.2c2.2,1.1,6.5-1.8,6.6,1.9c0,2.4-4.3,0.9-6.6,1.2c-2.3,0.3-4.7,0.3-7,0.4
							c-1.9,1.5-4.4,0.6-6.4,1.5c-2.6-0.2-5.1,0.5-7.6,0.6c-4.1,0.2-8.2,0.9-12.3,1.7c-3.2-0.6-6.1,1.9-9.3,0.7
							c-1,0.1-1.9,0.5-2.4,1.4c-3.2-0.1-6.3,0.1-9.1,2c-0.9,0.1-1.8,0.1-2.7,0.1c-2.2,0.5-4.8,0.1-6.6,2.1c-2.1,0.3-4.3,0-6.1,1.4
							c-1.8-0.3-3.5,1.1-5.3,0.7c-1.1-0.5-1.6-1.4-1.2-2.6c0.5-1,1.3-1.6,2.2-2.1c0.9-0.5,1.8-0.9,2.8-1.1c1-0.2,1.9-0.1,2.9-0.2
							c1.4-0.2,2.7-1,3.8-1.8c1.1-0.5,2.3-0.7,3.3-1.3c0.2-0.1,0.5-0.2,0.7-0.2c0.5-0.1,0.9,0.1,1.2,0.5c0.3,0,0.6,0,0.9-0.1
							c3-0.1,5.9-0.6,8.8-1.6c2.1,0.2,3.9-0.9,5.8-1.2c2.4,0.2,4.7-0.4,7-0.6c1.1-0.4,2.3-0.8,3.4-1.2c1.9,0.9,3.6-0.9,5.5-0.6
							c1.7,0,3.4,0.1,5.1-0.1c1.7-0.6,3.6-0.4,5.3-1.1c2.1,0.2,4.4-0.6,6.4,0.5c0.5,0,1-0.1,1.5-0.1C159.7,102,163,103.4,166,103.2z
							"/>
						<path class="st12" d="M165.8,115.8c0.5,0.4,1,0.8,1.5,1.2c-1.6,3.9,0.1,8-0.9,11.9c-3.5,1.1-7.1,3.3-10.4-0.3
							c-0.4-2.1-1-4.2-0.8-6.3C155.5,115.8,159.4,113.5,165.8,115.8z"/>
						<path class="st102" d="M104.3,134.8c-5,0.8-9.9,1.7-14.9,2.5c-1.4,0.4-1.9-0.6-2.4-1.6c-1.2-3.6-0.5-7,1.2-10.3
							c1.4,0.2,2,1.2,2.5,2.3c0.4,0.9,0.8,1.8,0.8,2.9c0.3-0.9-0.4-1.9,0.3-2.7c0.4-1.1,0.6-2.2,1.1-3.3c0.5-1.1,1.3-2.2,2.6-2
							c1.3,0.2,1.7,1.6,1.8,2.7c0.2,2.7,0.1,5.4,0.1,8c2.4,0.1,1.5-1.8,2.3-2.4C101.4,132,102.7,133.5,104.3,134.8z"/>
						<path class="st124" d="M176.4,117.2c0.5,1,1.3,1.7,2.3,1.1c3.9-2.4,6.5-0.6,8.8,2.4c0.9,2.6,0.2,5.2,0.4,7.8
							c-0.2,2.1-1.4,2.5-3.1,1.6c-0.9-0.6-0.5-2.3-1.8-2.3c-0.5,0-0.6,1.2-1,1.8c-1.1,0.8-2,1.3-1.9-0.7c-1.6-3.9-3.3-7.7-4.9-11.6
							C175.6,116.7,176,116.7,176.4,117.2z"/>
						<path class="st49" d="M122.3,118.2c2.5-2.2,5.1-3.7,8.3-1c0.7,1.7-1,2.5-1.4,3.8c-1.2,3.5,0.3,7.4-1.4,10.9
							c-0.3,0.6-0.9,1-1.6,1.2c-3.1,0.4-4.8-0.6-4.4-4C122.1,125.4,121.2,121.7,122.3,118.2z"/>
						<path class="st125" d="M110.5,134.5c-1.3,0-2.8,1.2-3.6-0.9c2.4,0.2,2.1-1.5,2.2-3.1c0-2.9,0.1-5.8,0.3-8.7
							c0.2-2.1,1.3-3.9,3.5-4c2.6-0.2,3.8,1.5,3.7,4c-0.4,0.9-0.8,1.9-0.9,2.9c-0.3,2.5,0.2,5.1-0.6,7.6
							C114.3,134.6,112.1,133.9,110.5,134.5z"/>
						<path class="st126" d="M136.2,130.9c0.2-4,0.1-8.1,0.9-12.1c1-5.1,3.7-6.2,8.9-4c0.5,1.3-0.2,2.2-0.8,3.2
							c-3.6,3.6-2.5,8.9-4.7,13.1C138.9,131.9,137.5,132.4,136.2,130.9z"/>
						<path class="st127" d="M165.8,115.8c-7.6-0.8-9.1,0.5-9.1,7.7c0,1.7,0,3.4,0.1,5.2c0.4,0.9,0.5,1.7-0.2,2.4
							c-0.8,0-1.5,0-2.3,0c-0.8-0.9-0.4-1.9-0.2-2.8c-0.9-3.5-0.6-7-0.1-10.4c0.4-3,2.4-5.1,5.4-5.3
							C161.9,112.4,165.1,111.9,165.8,115.8z"/>
						<path class="st128" d="M156.5,131.1c0.1-0.8,0.2-1.6,0.2-2.4c3.1,1.9,6.2,0.4,9.3,0.2c0.4-0.7,0.9-0.7,1.4-0.2
							c4.2,0.6,8.4,1.4,12.6,0.1c0.5,0.9,0.9,1.4,1.4,0c1.2-0.9,2.4-0.9,3.5,0.2c1.1,1.3,1.9,1.1,2.6-0.4l0.4-0.3l0.5,0.3
							c0.8,0.1,1.5,0.1,2.3,0.2c1.1,0.4,1.8,1.1,1.3,2.4C180.2,131.2,168.4,131.1,156.5,131.1z"/>
						<path class="st34" d="M104.3,134.8c-2.9,0.3-4.6-0.8-4.7-3.9c0.1-2.5-0.1-5.1,0.3-7.6c0.3-1.7,1.3-3.6,3.4-3.1
							c2,0.4,2.8,2.3,2.2,4.2c-1,3.1-1,6.1-0.4,9.3C104.9,134,104.6,134.4,104.3,134.8z"/>
						<path class="st109" d="M110.5,134.5c1.2-0.7,2.4-1.4,3.6-2.1c0.6-0.6,1.3-0.9,2.2-0.8c0.5,0.1,1,0.4,1.4,0.7
							c3.1,0.7,3.4-0.9,3.5-3.4c0.2-3.6-1.2-7.3,1.1-10.7c0,3.3,0.2,6.6,0,9.8c-0.2,3.8,1.3,4.9,4.8,4.1c0.6-0.1,1.1,0,1.4,0.5
							C122.5,133.2,116.5,133.9,110.5,134.5z"/>
						<path class="st129" d="M88.1,125.4c-0.1,3.4-0.2,6.8-0.3,10.3c-1,1.4-2.2,1-3.3,0.3c0.1-2.8,0.1-5.5,0.2-8.3
							C86.5,127.9,86.8,125.8,88.1,125.4z"/>
						<path class="st130" d="M132.9,109.7c3.8-1.6,8-1.2,12-1.9c1.1,0.9,2.8-0.2,3.8,1.1c-5.1,1.5-10.4,1.4-15.7,2
							c-0.4-0.3-0.5-0.6-0.4-0.9C132.6,109.9,132.8,109.7,132.9,109.7z"/>
						<path class="st69" d="M154.1,128.2c0.1,0.9,0.1,1.9,0.2,2.8c-0.4,0.1-0.8,0.2-1.2,0.4c-2.4,0.9-5.1-0.2-7.6,0.8
							c-3,0-6,0-9-0.1c-0.4-0.2-0.5-0.5-0.5-0.8c0.1-0.3,0.1-0.5,0.2-0.5h0c1.6,0.4,3.1,0.5,4.1-1.2c2.2-0.4,4.5-0.9,6.8-0.6
							c0.5,0.2,0.9,0.5,1.3,0.8C150.5,130,152.8,131.1,154.1,128.2z"/>
						<path class="st131" d="M148.4,129.9c-0.4,0-0.9,0.1-1.3,0.1c-2.6-4.1-1.3-8.9-2.6-13.2c0.5-0.7,0.9-1.4,1.4-2.1
							C150.3,119.2,147.6,124.9,148.4,129.9z"/>
						<path class="st55" d="M152.7,107.4c2-1.1,4.2-1,6.4-0.7c3.1,2.1,6.6,0.1,9.8,1.2c-4.1,0.9-8.1,1.1-12.3,0.8
							C155.4,107.7,153.6,108.9,152.7,107.4z"/>
						<path class="st132" d="M128.2,119.4c0.8-0.7,1.6-1.5,2.4-2.2c2.2,2.3,1.1,5.2,1.4,7.8c0.2,2.1-0.6,4.4,1.3,6.1
							c-0.8,0.9-1.7,0.8-2.7,0.4C127.7,127.8,129.8,123.3,128.2,119.4z"/>
						<path class="st133" d="M117.7,132.3c-0.4,0-0.9,0-1.3,0.1c-2-2.8-0.9-6.3-2.1-9.3c0-1.7,1.4-1,2.2-1.3
							C118.9,125.1,117,128.9,117.7,132.3z"/>
						<path class="st134" d="M91.8,127.8c0.6,2.6,1.1,5.3-1.2,7.9c0-2.7,0-5.3,0-8C91,127.7,91.4,127.8,91.8,127.8z"/>
						<path class="st135" d="M90.4,116.1c0,1,0.2,1.9,1.3,2.2c0.6,0.6,0.5,1.2,0.2,1.9c-1.3,0.5-2.7,0.9-4,1.4
							c-0.5-0.8-1-1.6-1.5-2.4c0.2-0.7,0.4-1.5,0.6-2.2c0.2-0.4,0.5-0.8,0.9-1c0.6-0.3,1.3-0.5,2-0.5C90,115.8,90.2,116,90.4,116.1z
							"/>
						<path class="st136" d="M111.9,114.6c2.4-3.6,5.5-3.7,9.1-2C118.1,114.1,115,114.1,111.9,114.6z"/>
						<path class="st137" d="M132.9,109.7c0,0.4,0,0.9,0,1.3c-3.2-0.5-6.3,3.2-9.5,0.1C126.5,110.7,129.7,110.2,132.9,109.7z"/>
						<path class="st138" d="M167.5,128.7c-0.5,0.1-0.9,0.1-1.4,0.2c0.6-3.9-1.3-8.1,1.2-11.8C167.3,121,167.4,124.8,167.5,128.7z"
							/>
						<path class="st53" d="M152.7,107.4c1.2,0.5,2.8-0.1,3.9,1.2c-2.6,0.1-5.3,0.2-7.9,0.3c-1.2-0.4-2.8,0.1-3.8-1.1
							C147.4,107.7,150.1,107.6,152.7,107.4z"/>
						<path class="st139" d="M102.6,116.9c1.2-3.7,3.9-2.8,6.6-2.1C107.5,116.8,104.8,116.3,102.6,116.9z"/>
						<path class="st140" d="M130.4,131.1c0.9,0,1.8,0,2.7-0.1c1-0.1,2-0.1,3.1-0.2c0.1,0.4,0.2,0.9,0.3,1.3c-2.7,0.1-5.3,0.3-8,0.4
							c-0.5-0.2-0.9-0.4-1.4-0.5c0-0.3,0-0.6,0-0.9C128.2,130.3,129.3,130.3,130.4,131.1z"/>
						<path class="st132" d="M91.8,120.3c-0.1-0.6-0.1-1.3-0.2-1.9c1.6,0.6,3.2-2.5,4.9-0.1C95.5,120.1,93.3,119.4,91.8,120.3z"/>
						<path class="st29" d="M176.4,117.2c-0.4,0-0.8,0-1.2,0c-1.3-0.9-1.5-2.3-1.9-3.6c0.3,0,0.6,0,0.9,0c1.3-0.8,2.3-0.9,2.4,1
							C174.9,115.3,176.6,116.3,176.4,117.2z"/>
						<path class="st141" d="M127.9,104c-2.6,0-5.3,0-7.9,0c-0.4-0.2-0.6-0.4-0.4-0.6c0.2-0.2,0.3-0.3,0.5-0.3
							c2.7-1.9,1-4.6,1.1-6.9c0.2-4,2-6.8,5.1-8.9c2.4-1.6,4.3-1.3,5.6,1.4c0.4,0.9-0.1,1.6-0.6,2.3c-2.2,2.5-2.8,5.5-2.4,8.8
							C129.1,101.3,129.8,103,127.9,104z"/>
						<path class="st31" d="M143.5,101.6c-1.9,0.2-3.8,0.3-5.6,0.5c-1.2,0.2-1.6-0.3-1.3-1.4c1.5-2.9-0.1-5.9,0.2-8.9
							c0.4-4.2,1.8-7.8,6.4-8.4c2.3-0.3,4.6,1.1,4.1,4.3c-4.5,2.1-5,6-4.4,10.3C142.8,99.2,144,100.2,143.5,101.6z"/>
						<path class="st57" d="M117,105.1c-1.6,1-3.3,1.5-5.2,1.5c-0.9,0.5-1.8,0.6-2.6-0.1c0.4-4.2,0.7-8.4,1.4-12.6
							c0.3-1.9,1.8-3.6,3.9-3.8c2-0.1,3.1,1.3,2.9,3.4c-0.3,1-0.6,1.9-0.6,2.9C116.9,99.3,115.8,102.2,117,105.1z"/>
						<path class="st142" d="M141.2,99.5c0-2.3-0.1-4.7,0-7c0.2-3.9,2.1-5.7,6.1-4.8c4.4,2.9,1.3,7.2,2.1,10.9
							c-3.3-2.3-1-5.3-1.5-7.6c-0.8,2.4,0.6,5.5-0.6,8.2c-0.3,0.5-0.6,1-0.9,1.4C144.6,100.5,142.8,100.2,141.2,99.5z"/>
						<path class="st143" d="M99.7,108.8c0.4-3.7,0.7-7.3,1.3-11c0.3-2.1,1.7-4,3.8-3.8c2.1,0.2,2.3,2.3,2.1,4.2
							c-3.1,3.6-0.7,7.8-1.2,11.7l-0.1,0.3l0.2,0.2c-2,0.2-4.1,0.4-6.1-0.1C99.4,109.8,99.4,109.3,99.7,108.8z"/>
						<path class="st56" d="M94.6,112.8c-0.6,0.4-1.2,0.8-1.8,1.2c-0.8-0.8-0.9-1.7-0.9-2.8c0.6-2.9,0.2-5.8,0.7-8.7
							c0.4-2.6,0.8-5.7,5-4.4c1.5,3.4,0.3,7.1,1.3,10.6C100,112.9,96.7,112.2,94.6,112.8z"/>
						<path class="st144" d="M97.5,98.2c-4-0.7-3.7,2.4-3.9,4.7c-0.4,3.8-0.5,7.5-0.7,11.3c-2.3-1.1-2.6-3.2-2.8-5.4
							c-0.2-1.9,0.2-4-1.4-5.5c-0.5-0.4-0.8-0.9-1.1-1.5c0.9-3.9,4.5-4.6,7.5-5.8C95.9,96.8,96.7,97.5,97.5,98.2z"/>
						<path class="st38" d="M115.5,95c0.1-1.2,1-1.4,1.9-1.5c1.7,2,1.2,4.3,0.8,6.4c-0.3,1.7-0.5,3.1,1.8,3.2c0,0.3,0,0.6,0,0.9
							c-1.1-0.1-2.2,0.2-3,1.1C114.5,102.1,116.7,98.3,115.5,95z"/>
						<path class="st145" d="M136.5,100.6c0.4,0.5,0.9,0.9,1.3,1.4c-0.7,0.9-1.6,1.1-2.6,0.8c-1.2-1-3.2,0.2-4.1-1.5
							c-1.2-3.7-1.2-7.4-0.6-11.1c0.5-0.5,0.9-1,1.4-1.4c2.2,2.6,1,5.6,1,8.4C132.9,100,133.8,101.1,136.5,100.6z"/>
						<path class="st146" d="M105.7,109.9c-0.5-4-3.1-8.2,1.2-11.7c-0.2,1.7-0.4,3.3-0.7,5c-0.5,2.5,0.6,3.5,3,3.3
							c0.9,0.1,1.7,0.1,2.6,0.1c-1,2-5.1-0.3-4.8,3.4C106.6,110,106.1,110,105.7,109.9z"/>
						<path class="st147" d="M94.6,112.8c0.7-2.1,4.7-0.7,4.2-4c0.3-0.1,0.6-0.1,0.9,0c0.1,0.5,0.1,1,0.2,1.4
							c0.7,0.3,1.4,0.6,1.5,1.6c-0.6,1.7-3.1,0.7-3.5,2.6C96.4,114.5,95.4,113.8,94.6,112.8z"/>
						<path class="st148" d="M147.3,99.2c0-3.2,0-6.4,0-10.4c2.2,3.5,0.2,7,2.1,9.8c0,0.3,0,0.6,0.2,0.9l-0.6,0.1l-0.6-0.1
							C148,99.3,147.7,99.2,147.3,99.2z"/>
						<path class="st149" d="M135.4,80.8c2.4,0.4,4.8-2.7,7.3-0.2c-2.2,1.7-4.8,1.1-7.3,1.4c-0.3-0.3-0.4-0.5-0.3-0.8
							C135.2,80.9,135.2,80.8,135.4,80.8z"/>
						<path class="st150" d="M135.4,80.8c0,0.4,0,0.8,0,1.2c-1.7,1.6-3.9,0.9-5.9,1.2c-0.3-0.2-0.5-0.5-0.4-0.7
							c0.1-0.3,0.2-0.4,0.3-0.4C131.4,81.6,133.4,81.2,135.4,80.8z"/>
						<path class="st139" d="M129.4,82c0,0.4,0,0.8,0.1,1.1c-1.8,1.6-3.8,1-5.9,0.9C125.1,82.1,127.7,83.2,129.4,82z"/>
						<path class="st151" d="M108.5,89.8c-0.7-3.8,1.8-2.3,3.5-2.1C111.5,89.5,109.5,88.7,108.5,89.8z"/>
						<path class="st152" d="M87.9,116.8c-0.3,0.2-0.6,0.3-1,0.3c-0.9,0-1.7,0-2.6-0.1c0.1-2.9,0.2-5.8,0.2-8.7
							c0-1.3-0.2-2.4-1.9-1.9c0.2-0.4,0.5-0.7,0.7-1.1c2.5-1.6,4-0.6,4.7,1.9c0.6,1.9,0.4,3.8,0.4,5.7
							C88.5,114.3,88.5,115.6,87.9,116.8z"/>
						<path class="st58" d="M86.9,114.6c0-1.9-0.3-3.8,0-5.6c0.4-3-1.4-3.4-3.6-3.6c0.7-2,2.6-2.6,4.3-3.5c0.5,0,1.1,0,1.6-0.1
							c0.4,0.5,0.6,1.1,0.6,1.8c-0.2,2.3-0.1,4.6-0.3,6.8C89.3,112.1,89.9,114.5,86.9,114.6z"/>
						<path class="st153" d="M128.2,77c2.5-1.8,5.3-2.2,8.2-2.3c0.4,0.2,0.5,0.4,0.4,0.6c-0.1,0.2-0.3,0.3-0.4,0.3
							C133.7,76.2,131.1,77.6,128.2,77z"/>
						<path class="st69" d="M118.9,79.3c2.1-1.4,4.2-2.7,6.8-1.2C123.6,79.5,121.3,79.6,118.9,79.3z"/>
						<path class="st87" d="M136.5,75.7c0-0.3,0-0.6,0-0.9c2.1-1.5,4.7-1.1,7.1-1.4c0,0.4,0,0.8,0,1.2
							C141.2,74.9,138.8,75.3,136.5,75.7z"/>
						<path class="st154" d="M100.1,87.5c0.4-2.3,2.8-2.2,4.2-3.3C104.7,87.5,101.8,86.8,100.1,87.5z"/>
						<path class="st155" d="M109.5,84c-0.3-3.2,1.6-2.8,3.6-2.2C112.6,83.5,110.5,83,109.5,84z"/>
						<path class="st67" d="M88.3,186.5c-0.5,1.4-1.6,2.1-3.1,1.9c-1.5-0.2-1.8-1.2-1.7-2.4c0.2-1.6,1.5-1.4,2.6-1.4
							C87.4,184.5,88.4,184.8,88.3,186.5z"/>
						<path class="st156" d="M149.2,135.8c8.9-0.9,17.8-0.5,26.6,0c-0.6,1.1-1.9,0.5-2.7,1.1c-7.1,0-14.2,0-21.4,0
							C151,136.3,149.7,136.9,149.2,135.8z"/>
						<path class="st157" d="M149.2,135.8c0.9,0.4,1.8,0.8,2.6,1.1c-6.7,0.1-13.4,0.1-20,0.2c-0.4-0.3-0.5-0.5-0.4-0.7
							c0.1-0.2,0.3-0.3,0.5-0.3C137.6,136,143.4,135.9,149.2,135.8z"/>
						<path class="st158" d="M131.9,136.1c0,0.3-0.1,0.7-0.1,1c-3.7,1.1-7.3,2.4-11,0C124.3,135.3,128.1,135.9,131.9,136.1z"/>
						<path class="st159" d="M93.9,139.3c3.4-1.7,7-0.8,10.6-1.1c1.2-0.4,2.4-1.1,2.4,1.1c-4.3,0.4-8.6,0.7-12.9,1.1
							c-0.4-0.2-0.5-0.5-0.4-0.8C93.7,139.4,93.8,139.3,93.9,139.3z"/>
						<path class="st102" d="M173.2,136.9c0.9-0.4,1.8-0.8,2.7-1.1c3.8-0.6,7.7-0.5,11.5,0.3c0,0.3,0,0.6,0,0.9
							C182.6,136.9,177.9,136.9,173.2,136.9z"/>
						<path class="st160" d="M106.8,139.3c-0.8-0.4-1.6-0.7-2.4-1.1c2.8-2,5.7-0.3,8.5,0.1C111.2,140.1,108.9,139.4,106.8,139.3z"/>
						<path class="st161" d="M88.1,138.3c0.1,0.4,0.1,0.7,0,1c0.4,0.5,1.1,0.7,1.3,1.4c-1.5,1.2-3.2,1.3-5,0.9
							c-0.3-2.1,2.1-2,2.8-3.2C87.4,138,87.7,137.9,88.1,138.3z"/>
						<path class="st162" d="M112.8,138.4c2-2.5,4.8-0.7,7.2-1.2C117.9,139.6,115.2,138,112.8,138.4z"/>
						<path class="st104" d="M89.4,140.8c-0.4-0.5-0.9-1-1.3-1.4c1.9,0,3.9-0.1,5.8-0.1c-0.1,0.4-0.1,0.8,0,1.2
							C92.4,140.6,90.9,140.7,89.4,140.8z"/>
						<path class="st51" d="M114.2,190.2c-0.3,2.3-0.3,5.6-3.9,5.9c-3.1,0.3-3.7-2.4-3.7-4.9c0-2.8,0.2-6.1,3.7-6.3
							C113.1,184.8,114.3,187.1,114.2,190.2z"/>
						<path class="st163" d="M176.6,114.6c-0.6-0.9-1.4-1-2.4-1c0.1-0.8,0.2-1.6,0.3-2.5c1.5-0.5,2.5,0.4,3.5,1.2
							c4.7,0.9,9.6-1.3,14.1,1.3C186.9,113.9,181.8,114.3,176.6,114.6z"/>
						<path class="st164" d="M209.7,112.3c0,0.9-0.1,1.7-0.1,2.6c-3.1-0.4-6.3-0.8-9.5-1.2c0.5-1.1,1.8-0.5,2.4-1.2
							C204.9,112.5,207.3,112.4,209.7,112.3z"/>
						<path class="st165" d="M178,112.3c-1.4,0.2-2.5-0.3-3.5-1.2c0.1-1.4,1.1-2,2.3-2.2C178.3,109.6,177.5,111.2,178,112.3z"/>
						<path class="st166" d="M202.5,112.6c-0.8,0.4-1.6,0.8-2.4,1.2c-1.4-0.6-3.4,0.9-4.4-1.3C198,112.5,200.3,112.5,202.5,112.6z"
							/>
						<path class="st86" d="M161.3,185.7c-0.5,0.9-1,1.8-1.5,2.7c-0.6-0.1-1.1-0.3-1.7-0.3c-1.4-0.1-3.1,0.9-3.8-1.1
							c-0.2-0.5-0.1-1.2,0.2-1.6c1.2-1.5,2.8-1,4.1-0.3C159.5,185.5,160.3,186,161.3,185.7z"/>
						<path class="st107" d="M130.5,90.2c2.3,3.6,0.8,7.6,1.1,11.4c-0.2,0.6-0.3,1.1,0.1,1.6c-1.3,0.3-2.6,0.5-3.8,0.8
							c0.7-3-1.5-5.8-0.5-8.8C128,93.2,127.9,90.9,130.5,90.2z"/>
						<path class="st167" d="M166,103.2c-3,1.5-6.1,0.8-9.2,0.9c1.9-4.1,5.4-1.6,8.1-2C165.3,102.4,165.7,102.8,166,103.2z"/>
						<path class="st168" d="M115.5,95c2.3,3.1-0.3,7,1.5,10.2l0-0.1C112.7,102.3,115.9,98.4,115.5,95z"/>
						<path class="st169" d="M116.5,108.9c-2.8,1-5.4,3.1-8.6,1.1c2.5-0.7,5-1.3,7.5-2C115.9,108.1,116.2,108.4,116.5,108.9z"/>
						<path class="st170" d="M129.6,106.5c-2.2,1.8-4.8,1.1-7.2,1.1c-0.4-0.2-0.5-0.4-0.4-0.6c0.1-0.2,0.3-0.3,0.4-0.3
							C124.8,107.2,127.1,104.9,129.6,106.5z"/>
						<path class="st171" d="M148.3,104.3c-1.4,1.2-3.1,1.2-4.8,0.9c-0.4-0.2-0.5-0.5-0.3-0.7s0.3-0.3,0.4-0.3
							c1.4-1.4,3.1-1.2,4.8-0.9c0.4,0.3,0.5,0.5,0.3,0.8C148.6,104.2,148.5,104.3,148.3,104.3z"/>
						<path class="st116" d="M122.3,106.7c0,0.3,0,0.6,0,0.8c-1.8,1.2-3.8,1.5-5.9,1.3c-0.4-0.3-0.7-0.6-1.1-0.9
							C117.7,107.6,120,107.2,122.3,106.7z"/>
						<path class="st172" d="M141.2,99.5c1.6,0.7,3.8-1.1,5.1,1.1c-0.7,1.2-1.7,1.2-2.9,1C143,100.6,141.1,101.1,141.2,99.5z"/>
						<path class="st56" d="M148.3,104.3c0-0.4,0.1-0.8,0.1-1.1c2.3,0.5,4.9-1.7,6.9,1C153,104.2,150.7,104.2,148.3,104.3z"/>
						<path class="st173" d="M131.7,103.2c-0.7-0.2-1.3-0.5-2-0.7c0.6-0.3,1.2-0.6,1.9-1c1.2,0.3,2.7,0,3.6,1.2
							C134,103,132.9,103.1,131.7,103.2z"/>
						<path class="st174" d="M137.7,105.4c-1.6,0.7-3.1,2.2-4.7-0.1c1.5-0.8,3-1.4,4.7-1c0.3,0.2,0.4,0.5,0.3,0.7
							C137.9,105.3,137.8,105.4,137.7,105.4z"/>
						<path class="st175" d="M137.7,105.4c0-0.3,0.1-0.7,0.1-1c1.9-0.1,3.9-0.2,5.9-0.3c0,0.4,0,0.7-0.1,1.1
							C141.6,105.2,139.6,105.3,137.7,105.4z"/>
						<path class="st176" d="M88.1,138.3c-0.3,0-0.6,0-0.9,0.1c-0.5-1.2-2.6-0.8-2.6-2.5c1.2,0.8,2.2,0.2,3.3-0.3
							c0.5,0.5,1,1.1,1.5,1.6C88.9,137.6,88.5,138,88.1,138.3z"/>
						<path class="st94" d="M192,120.6c2.5-4.2,6.4-4,10.3-2.8c3.6,1.1,4,4.4,4.1,7.7c0.1,2.5,0.1,5.1,0.1,7.6
							c0.4,0.6,0.4,1.3,0,1.9c-1.8,1.4-3.8,1.3-5.7,0.4c-0.6-0.3-1-0.8-1.2-1.4c-0.7-4.2-0.9-8.8-6.8-9.2
							C191.2,123.6,191.1,122.2,192,120.6z"/>
						<path class="st177" d="M206.2,134.6c0.1-0.5,0.1-1,0.2-1.5c3.2,0.2,6.4,1.6,9.4-0.7c0.5-0.1,0.9-0.1,1.4-0.2
							c0.4,0.5,0.8,0.9,1.3,1.4C214.7,137.3,211.6,137.5,206.2,134.6z"/>
						<path class="st178" d="M192,120.6c0.2,1.4-0.2,3,1.5,3.8c0.7,2.4,1,4.7-0.3,7c-0.4-0.1-0.8-0.1-1.2-0.2
							c-0.4-0.8-0.9-1.6-1.3-2.4C191.4,126.1,189.8,123.1,192,120.6z"/>
						<path class="st13" d="M188.5,128.6c-0.3,0-0.6,0-0.9,0.1c0-2.6-0.1-5.3-0.1-7.9C189.4,123.1,188.1,125.9,188.5,128.6z"/>
						<path class="st179" d="M206.2,134.6c4.1-0.2,8.4,1.5,12.3-0.9c1.4,0.4,2.9,0.7,4.4,1.1c1.7,0.1,3.4,0.1,3.7,2.4
							c-0.1,1.5-0.2,3-0.4,4.5c-5.9,0.1-11.7,0.2-17.6,0.4c-4.6-0.1-9.3-0.2-13.9-0.3c-0.2-1.9-0.3-3.8-0.5-5.8
							c1.4-3.3,3.7-2.7,6.2-1.3C202.3,134.6,204.2,134.6,206.2,134.6z"/>
						<path class="st175" d="M200.3,134.6c-2,0.9-4.5-0.9-6.2,1.3c-0.4-0.5-0.7-1-1.1-1.4c0-0.9,0.6-1.1,1.3-1.2
							c2-1.4,4-1.2,5.9,0.2C200.3,133.8,200.3,134.2,200.3,134.6z"/>
						<path class="st180" d="M200.2,133.5c-2-0.1-3.9-0.1-5.9-0.2c-0.4-0.6-0.7-1.3-1.1-1.9c0.2-2.3-1.6-4.7,0.3-7
							C200.2,124.1,200.4,124.4,200.2,133.5z"/>
						<path class="st181" d="M145.5,132.2c2.4-1.4,5-1,7.6-0.8C150.7,133.2,148,132.3,145.5,132.2z"/>
						<path class="st182" d="M89.2,102.8c0-0.4,0-0.7,0.1-1c3.1-0.4,2.2,1.9,2.3,3.5c0.2,3.1-0.3,6.2,1.3,9l-0.1-0.2
							c0.2,1.9-1.1,1.9-2.4,2.1l0.1-0.4C86.9,111.7,89,107.2,89.2,102.8z"/>
						<path class="st183" d="M101.1,111.3c-0.4-0.3-0.8-0.7-1.3-1c2-0.9,4-0.3,6,0.1c-0.9,1.7-2.2,1.6-3.7,0.9
							C101.8,111.8,101.4,111.8,101.1,111.3z"/>
						<path class="st25" d="M101.1,111.3c0.3,0,0.7,0,1,0c0.2,3.2-2.9,2-4.2,3.1C96.9,111.3,100.7,113,101.1,111.3z"/>
						<path class="st184" d="M185,129c-1.2-0.1-2.4-0.1-3.5-0.2c0-1.9-0.8-4.6,2-4.5C186,124.4,185.2,127.2,185,129z"/>
						<path class="st185" d="M130.4,131.1c-1.1,0-2.2,0-3.4,0c0.2-3.9-1.3-8,1.1-11.7c1.7-0.3,2.4,0.3,2.4,2.1
							C130.5,124.7,130.5,127.9,130.4,131.1z"/>
						<path class="st186" d="M114.3,123.1c2.1,2.8,2.1,6,2.1,9.3c-0.8,0-1.5,0-2.3,0C114.1,129.3,114.2,126.2,114.3,123.1z"/>
						<path class="st181" d="M144.5,116.9c5,3.6,1.7,8.8,2.6,13.2c-2.3,0.4-4.6,2-6.8-0.3C141.1,125.2,139.1,119.8,144.5,116.9z"/>
						<path class="st187" d="M89.2,102.8c0.6,4.3-1.1,8.8,1.3,12.9c-0.8,0.4-1.7,0.7-2.5,1.1c-0.3-0.7-0.6-1.5-1-2.2
							C89.9,111.1,86.6,106.4,89.2,102.8z"/>
					</g>
				</g>
			</g>
		</g>
	</g>
	<g>
		<path class="st188" d="M38.8,129.9c0.6,1,0.2,2.1,0.5,3.1c0.7,1.9,0.1,3.8,0.3,5.4c0.3-1.6-0.4-3.6,0.3-5.4c0.3-2.6,0.7-5.2,1-7.9
			c0.6,0.3,0.9,0.8,1.1,1.4s0,1.1-0.1,1.7c0,1.4-0.2,2.7,0.3,4.4c-0.4-1.7-0.3-3.1-0.2-4.4c0.1-0.5,0.3-0.7,0.8-0.7
			c1.2,1.9,2.3,1.6,4,0.4c3.3-2.6,5.8-6.1,8.9-8.8c1.2-1.1,1-2.6,0-3.7c-1-1-2.2-0.1-2.8,0.7c-1.9,2.2-4.6,3.5-5.6,6.5
			c-0.6,1.6-1.9,2.8-3.9,1.7c-0.2-0.2-0.2-0.5,0-0.8c1.4-4,3.9-7.2,7-9.9c3.4-3,6.9-5.9,10.5-9c1.3,10.9-5.6,24.1-14.9,28.7
			c-3.2,1.6-4.7,3.8-4.5,7.4c0.3,4.1,0.2,8.2,0.9,12.2c0.2,1.6,0.5,3.3,0.8,4.9c-0.2,2,0.9,3.7,1,5.5c-0.1-1.8-1.2-3.5-1-5.4
			c0.1-0.7-0.2-1.5,0.2-2.1c0.7-6.3,3.8-11.5,7.5-16.5c2.2-3,4.4-6,7-9.5c0.8,4.7,1.2,8.6,0.3,12.7c-0.5-0.4-0.5-1-0.8-1.5
			c-0.8-1.6-2.2-1.8-3-0.3c-1.3,2.5-2.9,4.6-5.3,6c-0.9,0.5-0.7,1.7-1,2.7c-0.4,1.6-0.7,3.2-1.4,4.8c-0.3,0.8-1.7,1.5-0.3,2.4
			c1,0.7,2.1,0.5,3-0.3c1.1-1,2.3-1.9,3.7-2.2c0.6-0.1,1.1-0.3,1.7,0.1c-1.2,3.2-3.2,5.7-5.8,8c-3.5,3.1-4.7,6.6-2.9,11.2
			c1.6,4.3,2.8,8.7,4.5,12.9c1.5,2,1.9,4.5,3.3,6.6c-3.2-4.4-2.7-9.3-2.3-14.2c1.2-7.3,4.3-14,7.2-21.5c5.2,12.1,5.6,23.4-0.6,34.5
			c-2.1,3.6-2.5,6.7,0.1,10.2c2.2,3,3.9,6.2,6.3,9.1c1.9,1.7,3.3,3.9,5,5.6c-1.5-2.1-4.1-3.7-4.4-6.7c-2.3-7.1-1.3-14.3-0.4-21.4
			c0.3-2.3,0.2-4.6,1.1-7.2c2.4,3,4.7,5.8,5.8,9.2c-1.5,0.9-3.9-0.1-4.4,2.8c-0.3,1.8-1.5,3.3-0.8,5.3c0.2,0.4,0.2,1,0,1.4
			c-1.7,3.2,0.6,5.7,1.6,8.4c0.4,1.1,1.2,1.8,2.5,1.3c1.2-0.4,2.1-1,1.8-2.5c-0.4-1.6-0.4-3.3,0-4.9c0.2-1-0.2-1.6-0.7-2.4
			c-1.7-2.7-1.4-4.9,0.7-7.7c3.2,7.6,3.2,15.4,0.9,23.1c-1,3.3-0.5,5.7,2.2,7.8c3.2,2.6,6.3,5.3,9.8,7.3c2.6,0.8,4.4,2.8,6.7,3.6
			c-1.7-1.3-4.4-1.7-5.5-4.3c-4-6-4.4-13-6-19.7c-0.4-1.9-0.6-3.8-0.9-6c2.6,0.6,4.4,2,6,3.5c6.9,6.4,10.2,14.3,9.7,23.8
			c-0.3,4.2,0.3,5,4.4,6.3c3.9,1.2,7.9,2.3,11.8,3.4c0.7,0.2,1.3,0.4,1.9,0.6c0.8,0.3,1.4,0.9,1.2,1.8c-0.3,1.2-1.3,0.6-1.9,0.5
			c-4.2-0.5-8.1-1.9-12.1-3.2c-4.4-1.4-5-1.2-8,2.2c-5,5.7-11.6,6.1-18.5,5.2c0.7-0.9,1.7-0.9,2.7-1c3.3-0.5,6.6-0.8,8.8-3.8
			c0.6-0.8,1.7-0.9,2.7-1.1c1.9-0.4,1.7-1.3,0.5-2.4c-1.2-1.2-2.7-2-4.4-2c-3.2,0.1-6.4-0.3-9.7-0.2c-1.3,0-2.6-0.1-3.4-1.2
			c5.6-2.6,11.3-2.6,17-0.4c1.8,0.1,3.1,1.4,4.8,2.1c-1.5-0.9-3.1-1.5-4.3-2.7c-4.4-2.4-8.3-5.3-12.1-8.5c-3.1-2.7-4.1-2.8-7.3-0.4
			c-2.1,1.6-4.6,2.3-7.1,2.1c-8.8-0.4-16-4.2-22-10.6c-1.2-1.3-1.5-2.1,0.6-2.8c4.6-1.5,9.2-2.9,14.2-1.8c-2.7,0.7-5.1,2-7.6,3.3
			c-1.2,0.6-1.7,1.1-0.5,2.1c0.9,0.7,1.4,1.6,1.7,2.6c0.2,0.7,0.7,1.2,1.5,1.3c2.6,0.4,5,1.3,7.3,2.7c2.2,1.2,4.8,0.6,7.1-0.2
			c2.1-0.7,2.1-2.5,0.5-4.1c-2.5-2.4-5.6-3.4-8.8-4.5c-1.5-0.5-3.2-1.2-1.3-3.2c3.9-0.1,7.2,1.8,10.4,3.6c1.3,0.4,2.2,1.3,3.1,2.2
			c0.4,0.3,0.7,0.8,1.1,1.1c-0.5-0.4-0.9-1-1.4-1.4c-0.7-0.9-2-1.3-2.1-2.7c-2.8-3.9-5.5-7.8-8.3-11.6c-1.8-2.5-3.8-4.2-7.3-2.8
			c-2.7,1.1-5.5,0.5-7.9-0.8c-7.6-4-13-10-16.1-18.1c-0.6-1.7-0.5-2.4,1.6-2.4c5.8,0.1,11.1,1.7,15.6,5.4c-3,1.6-5.9,1.3-8.3-0.8
			c-0.6-0.5-1.1-1.1-1.7-1.6c-1.5-1-2.2-0.3-2.4,1.1c-0.2,1.4,0.4,2.7,1.4,3.7c3.5,3.6,7.2,7.1,11.7,9.5c0.6,0.3,1.2,0.7,1.9,0.9
			c0.7,0.2,1.6,0.6,2.2-0.1c0.6-0.8-0.2-1.4-0.6-2c-1.6-2.5-2.2-5.5-4.4-7.7c-0.7-0.7-0.6-2,0.3-3c2.7,1.6,4.5,4.1,6.4,6.5
			c2,1.6,2.5,4.1,3.6,5.8c-0.7-2.1-2.5-4-2.9-6.5c-2.4-5.8-4.7-11.6-6.6-17.5c-0.8-2.6-2-4.7-5.5-4.5c-2.9,0.1-5.2-1.6-7.2-3.5
			c-6-6.1-9.5-13.5-11.4-21.8c-0.3-1.1-0.3-2.3,0.2-3.6c10,3.9,16.8,10.9,20.9,20.8c-0.4-5.9-0.8-11.8-1.3-17.7l0.2-0.1l-0.2,0.1
			c-0.6-1.6-1.2-3.2-1.8-4.8c-0.2-0.7-0.7-0.6-1.2-0.5c-5.5-1.4-7.6-5.9-9.3-10.7c1-0.8,1.9-0.4,2.5,0.4c1.3,1.4,3.1,2.4,3.9,4.2
			c0.5,1.1,1.3,1.7,2.5,1.5c1.3-0.1,1.3-1.2,1.4-2.2C38.1,131.1,38.2,130.4,38.8,129.9z"/>
		<path class="st189" d="M291.5,51.6c0.3-2.2,1.4-4.2,2.5-6.6c2.3,3.6,3.6,7.1,4.6,10.7c1.6,5.7,2.6,11.4,2.1,17.3
			c-0.2,2.7-0.8,5.3-2.6,7.3c-1.9,2.2-2.2,4.7-1.5,7.1c1.8,6.9,4,13.8,6.4,20.7c-2.9-12.9-2.2-25.1,7.2-35.9c1.9,5,2.6,9.9,2.4,15
			c-2.1,0.8-1.8-1.1-2.3-2c-0.5-1.1-0.2-3.2-1.5-3.2c-1.7,0-1.7,2.1-2,3.4c-0.5,2.6-1.6,5-2.8,7.3c-0.9,1.7,0.6,6.8,2.3,7.7
			c1.4,0.8,2.4,0.6,2.5-1.3c0-2.2,0.6-4.2,1.3-6.2c0.4-1.1,0.8-2.3,2.4-1.6c0.1,4.7-0.5,9.3-2.8,13.5c-0.5,1-1.3,2.1-2.2,2.6
			c-3.5,1.9-3.6,5-3.4,8.3c0.4,5.7,0.9,11.4,1.4,17.1c1.2,1.6-0.2,3.7,1,5.2c-0.8-1.4-0.6-2.9-0.3-4.4c3.3,0.1,4.9-3.3,7.9-4.1
			c1.2-0.3,1.1-1.5,1-2.5c-0.1-3,0.1-5.6,2.7-7.9c1.5-1.3,1.8-3.6,1.3-5.7c-0.2-0.8-0.3-1.6-1.3-1.7s-1.3,0.6-1.7,1.3
			c-2.7,5.3-5.9,10.4-6.5,16.6c-0.3,2.8-1,3.1-3.3,3c0-1.1-0.2-2.2,0.2-3.3c1.1-10.5,5.8-19,14.5-25.6c0.7,1.2,0.7,2.3,0.7,3.4
			c0.1,8.3-1.5,16.3-5.1,23.8c-1.5,3.2-3.6,5.9-7,7.2c-2.6,1-3.5,2.9-3.7,5.3c-0.4,4.3-0.8,8.6-1.1,12.8c-0.5,2.3-0.1,4.8-0.8,7.1
			c-0.1,0.9-0.5,1.7-0.6,2.6c0.1-0.8,0.4-1.5,0.6-2.2c0.2-1.4,0.2-2.9,1.5-3.9c3.6-8.4,9.4-14.7,17.8-18.5c0.8-0.4,1.6-1.2,2.4-0.6
			c0.8,0.6,0.2,1.6,0.1,2.5c-1.6,7.9-4.8,15-10.1,21.1c-2.7,3.1-5.8,5.3-10,5.2c-1.4,0-2.1,0.7-2.6,1.9c-1.1,2.5-2.1,5-3.2,7.5
			c-0.7,0-1.4-0.2-1.9-0.8c0.8-2.9,1.6-5.8,2.5-8.7c0.2-1,0.3-2.1-0.1-3.1c-0.7-1.4-1.8-2.5-2.9-3.5c-4.7-4.2-7.9-9.3-9-15.6
			c1.9-1,2.7,0.7,2.9,1.7c0.5,3.6,3.4,5.2,5.5,7.5c0.9,1,2,1.4,3.1,0.4c1.1-1,0.4-1.9-0.3-2.8c-2-2.6-4-5.3-5-8.5
			c-0.6-1.9-2.9-2.6-3.8-4.4c-0.2-0.3-0.7-0.4-1-0.1c-0.7,0.5-0.9,1.3-0.7,2.1c0.5,1.5,0.6,2.9-0.7,4c-1.9-5.5-1.2-11.1-0.8-16.8
			c5.7,7.6,12.7,14.3,14.5,24.3c1,1.7,0.1,3.4,0.2,5.1c0,1.4-0.8,2.5-0.9,4.2c0.2-1.5,0.9-2.6,0.9-3.9c0.1-1.6,0-3.3,0.8-4.8
			c0.9-5.4,0.9-10.9,1.1-16.3c0.1-2.3-0.9-3.9-3-4.9c-12.3-5.8-15.8-16.6-17-29.8c7.7,6.2,15.5,11.1,18.5,20.5c1,2.1,1,4.4,1.1,6.4
			c0.2-2.2-0.6-4.6-0.5-7.1c-0.8-5.5-1.6-11-2.4-16.5c-0.4-2.4-2-4-4.4-4c-9.7,0.2-19.7-12.2-20.9-21.7c3.9,1.5,7.8,2.7,11.3,4.7
			c-1.3,1.6-3.4,1.2-5.3,2.3c2.8,3.9,6.2,7.2,9.7,10.4c0.8,0.8,2.1,0.7,2.9-0.3c0.8-1,0-1.7-0.7-2.5c-1.8-1.9-2.9-4.4-5.8-5.4
			c-1.4-0.5-2.1-2.7-0.9-4.6c3.2,1.1,5.7,3.2,8.1,5.4c1.5,0.6,1.8,2.1,2.4,3.4c0.7,1.8,1.3,3.7,1.4,5.6c-0.2-0.3,0.5,0.1,0.1,0.2
			c-0.4,0.1-0.1,0.6,0,0.3c0.1-0.7-0.4-1.3-0.3-1.9c-0.1-1.6-0.9-3.1-1.4-4.7c-0.8-1.3-1.2-2.7-1.5-4.2c-1.4-3.6-2.8-7.3-4.2-10.9
			c-0.8-1.9-2.5-3-4.4-2.5c-9.5,2.3-15.9-2.3-21.4-9.1c-0.9-1.1-1.7-2.2-3.2-4.1c7.8,0.7,14.9,0.4,21.3,3.9c3.2,1,3.3,4.3,4.9,6.6
			c-0.3-0.9-1.2-1.6-1-2.6c0.2-0.4,0.4-0.7,0.9-0.5c0.8,1.3,1.6,2.7,2.4,4.1c2,1.9,2.2,4.9,3.9,6.8c-1.3-2.4-2.9-4.9-3.3-8
			c-0.1-0.6-0.1-1.1-0.2-1.6c1.6-1.2,2.9-0.1,4.4,0.4c2.5,0.9,3.6,0,3-2.6c-0.5-2.5-0.6-5-0.7-7.5c-0.2-4-3.6-6.6-4.2-10.4
			C293.6,51.7,292.1,52.3,291.5,51.6z"/>
		<path class="st3" d="M297.9,178.2c0.7,0,1.5,0,1.9,0.8c-0.9,4-2.9,7.6-4.2,11.5c-0.2,1.8-1,3.3-2,4.8c-0.4,0.8-1,1.6-1.3,2.7
			c0.3-0.9,0.8-1.6,1.1-2.3c0.9-1.3,1.3-3,2.7-3.9c5.6-7,12.4-11.4,21.7-11.3c1.4,0,2.4,0.2,1.7,1.9c-3.5,9-9.1,16-18.5,19.4
			c-2.1,0.7-4.3,0.8-6.3,0c-2.8-1.2-4.6,0-6.2,2.1c-3.4,4.5-6.7,9.1-10.1,13.6c-0.8,1.5-1.8,2.9-2.9,3.9c1.4-0.7,1.6-2.9,3.6-3.3
			c8.2-6.3,17-6.4,26.3-2.9c1.6,0.6,1.7,1.2,0.5,2.4c-5.8,6.1-12.6,10.1-21.1,10.7c-3.3,0.2-6.4-0.4-9-2.6c-1.7-1.5-3.5-1.6-5.2,0
			c-3.7,3.3-7.8,6.1-12,8.9c-0.7,1.3-2.1,1.5-3.2,2.1c-0.1,0.1-0.3,0.1-0.4,0.2c0.4,0.1,0.5-0.2,0.8-0.3c1.3-0.8,2.7-1.1,4.1-1.4
			c9.4-2.6,17.2,0.9,24.4,6.5c1.1,0.9,1,1.3-0.1,2.1c-6.5,5.1-20.2,6.2-27.4,2.2c-1.6-0.9-3.1-2.1-4-3.8c-1.5-2.4-3.5-2.8-6.1-2.1
			c-4.1,1.2-8.3,2.3-12.4,3.4c-1,0.3-2.6,1.2-3-0.2c-0.4-1.5,1.4-1.8,2.6-2.2c4.3-1.3,8.6-2.4,12.9-3.8c3.5-1.1,4.1-2.2,3.8-5.8
			c-0.1-2-0.4-4.1,0.3-6.1c0.8,1.1,2.1,1.4,3.2,2c1,0.5,2.3,0.2,2.5-0.7c0.7-2.5,2.6-4.3,3.1-6.8c0.1-0.9,1-2.5-0.6-2.7
			c-1.5-0.2-3,0.7-2.9,2.5c0.2,2.5-1,4-2.8,5.4c-0.8,0.6-1.6,1.2-2.5,0.2c0.4-8.8,7.9-19.4,15.4-21.6c-1.9,9.1-1.5,18.7-7.7,26.4
			c-1,2.2-3.2,2.6-4.9,3.7c2.1-0.9,3.8-2.5,6.1-3.1c3.9-2.3,7.2-5.2,10.7-8.1c2.5-2.1,3.1-4.4,2.1-7.5c-2.6-8.4-2.4-16.7,1.3-24.8
			c1.5-3.2,3.2-6.4,6.2-9.5c0.6,9.8,2.8,18.8,0.7,28c0,2.1-1.3,3.5-2.6,4.9c-0.8,1.2-2,1.9-3.2,3.7c1.2-1.6,2.3-2.4,3.1-3.4
			c1.2-1.2,2-2.8,3.3-3.9c2.2-3.2,4.3-6.5,6.6-9.6c1.9-2.6,1.9-5,0.2-7.8c-6.8-11.1-6.6-22.7-1.8-34.5c0.1-0.2,0.3-0.2,0.7-0.6
			c3.5,8.9,7.8,17.4,7.2,27.3c0.1,3-1.2,5.6-2.7,8c1.5-1.8,1.8-4.3,3.2-6.3C295.8,184,296.8,181.1,297.9,178.2z"/>
		<path class="st190" d="M41.6,126.6c-0.2-0.5-0.4-0.9-0.6-1.4c0.2-3.5,0.4-7,0.6-10.5c0.2-2.8-0.5-5.1-3-6.8
			c-2.5-1.6-3.8-4.2-4.4-7c-1.9-8.6-1.9-17.2,0.2-25.8c0.2-0.8,0.6-1.6,1-2.9c7,7.8,9.3,16.7,8.6,26.6c-0.5,1.3,0.2,2.6-0.2,3.9
			c-0.4,1.4-0.5,2.9-1,4.2c-0.1,0.3,0,0.6-0.2,0.7c0.4-1.2,0.7-2.7,1-4.1c0.3-0.9,0.2-2.1,1-2.8c1.5-4.5,3.1-9,4.6-13.6
			c0.6-1.9,0.7-3.9-0.8-5.5c-3.2-3.4-3.9-7.5-3.7-11.9c0.5-8.5,2.2-16.8,6.8-24.8c5,9.3,5,18.6,3.1,28.2c-0.3,1.2-0.2,2.4-0.9,3.5
			c-0.8,1.4-1.2,3.1-2.1,4.4c1-1.1,1-2.8,1.9-4c0.4-1,0.7-2.1,1.6-2.8c0.2-0.2,0.4-0.4,0.6-0.6c0.4-0.2,0.7,0,1,0.3
			c0.3,0.6,0.1,1.4,0.5,2c0.1,0.2,0.2,0.4,0.2,0.7c0,0.2-0.2,0.4-0.3,0.6c-1.9,0.3-2.6,1.7-3.2,3.2c-1.6,4.1-3.2,8.3-4.7,12.7
			c6-5.7,13.8-7.8,21.1-11.4c-1.7,11.3-11.7,21.6-20.3,21.8c-3,0.1-4.6,1.7-5,4.6c-0.6,4.3-1.3,8.7-2,13
			C42,122.9,43.7,125.2,41.6,126.6z"/>
		<path class="st189" d="M61.6,64.4c0.4-1,0.9-1.9,1.3-2.9c0.8-2.1,1.2-4.1-0.3-6.3c-2.1-3.2-1.8-6.9-1.2-10.5
			c1.4-7.7,4.7-14.4,10.2-20c0.5-0.5,1-1.5,1.8-1.2c0.9,0.3,0.6,1.4,0.6,2c1,9.3-0.2,18.3-5,26.5C68.9,54.3,67,55.3,66,57
			c0.6-0.5,0.9-1.4,1.8-1.7c0.2-0.1,0.5-0.2,0.8-0.2c1.5-0.1,1.9-1.5,2.7-2.4c1.2-1.5,2.4-3,4.5-3.2c6.3-2.9,12.6-1.2,18.9-0.1
			c1.1,0.2,0.9,0.8,0.4,1.4c-5.1,6.8-14.6,10.8-22.8,7.1c-3.3-1.5-4.6-1.1-6.5,1.7c-1.3,1.8-2.5,3.7-3.8,5.5
			C61.6,65.1,61.2,65,61.6,64.4z"/>
		<path class="st3" d="M276.8,52.7c-5.7-9.2-6-19.2-5-30.2c6.3,6.2,10.6,12.9,12.2,21c0.9,4.6,1,9.3-1.9,13.4
			c-0.5,0.3-0.3,1.4-1.3,1.3C278.9,56.8,277.5,55,276.8,52.7z"/>
		<path class="st189" d="M38.8,129.9c0,0.8,0,1.6-0.1,2.3c0,1.1,0.3,2.6-1.5,2.5c-1.4-0.1-2.9,0.6-3.8-1.6c-1-2.5-3-4.5-5.8-5.4
			c-3.4-7.5-4-15.4-3.5-24.3C33,110.7,38.5,118.9,38.8,129.9z"/>
		<path class="st190" d="M70.9,236.2c4.5,0.6,9,0.7,13.5,0.6c2.7,0,4.3,1.6,5.8,3.4c1.1,1.3,0.7,2.5-1.2,2.5c-2.3,0-3.9,1.1-5.1,2.9
			c-0.4,0.6-0.8,1.1-1.5,1.2c-2.9,0.4-5.7,0.8-8.6,1.3c-4.4-0.3-8.5-1.7-12.2-4.2c-1-0.7-1.3-1.2-0.1-2.1
			C64.4,239.4,67.3,237.2,70.9,236.2z"/>
		<path class="st188" d="M78.6,43.8c0.8-0.9,1.7-1.9,2.5-2.8c0.5-1-0.1-2.1,0.4-3c0.6-4.8,3.7-7.8,7.4-10.3c4.1-2.8,9-4.1,14.1-6
			C101.7,28,98.9,33,94.2,37c-2.5,2.1-5.3,3.6-8.6,4.2c-2.7,0.5-5.2,1.3-7,3.6C78.4,44.5,78.3,44.2,78.6,43.8z"/>
		<path class="st191" d="M264.9,42.8c-1-0.4-2-1-3-1.2c-11.2-1.6-16.1-9.4-19.6-19.7c8,2.5,15.6,4.4,20.2,11.7
			c1.1,1.8,1.8,3.7,1.7,5.8c0,1.2,0.5,2,1.2,2.8C265.7,42.8,265.5,43,264.9,42.8z"/>
		<path class="st189" d="M56.9,76.8c0-0.2,0-0.3,0-0.5c0.4-2.6,1-5.1,3.5-6.6c2.5-2.6,5.5-3.9,9-4.4c4.3-0.6,8.7-0.9,13.1-1.4
			c-2.8,8.3-13.1,15-21.3,14c-0.5-0.1-0.9-0.4-1.3-0.5C59,76.6,57.8,77.5,56.9,76.8z"/>
		<path class="st191" d="M275,56.8c-8.6,4.3-19.4,1.7-24.8-5.9c-0.6-0.9-0.6-1.4,0.5-1.6c6.3-1.1,12.6-2.8,18.9-0.1
			c3.3,0.8,5,3.3,6.3,6.2C275.9,56.2,275.5,56.5,275,56.8z"/>
		<path class="st190" d="M291.5,51.6c2.2-0.8,3.6-0.7,3.5,2.2c0,1.3,0.7,2.4,1.7,3.5c2.3,2.6,2,6,2.3,9.1c0.2,1.6-0.1,3.3,0.8,4.8
			c0.9,1.5-0.7,2-1.3,2.8c-0.6,0.8-1.3,0.8-2.2,0.2c-1.4-1-3.1-1.6-4.9-1.6C289,65.6,289.5,58.6,291.5,51.6z"/>
		<path class="st190" d="M54.7,154.2c-2,0.6-3.8,1.4-5.2,3c-1.8,2-3.3,0.2-4.9-0.5c-0.5-0.2-0.5-0.9,0-1.2c2.7-1.9,2.2-5,2.9-7.6
			c0.3-1.1,0.5-1.7,1.6-2.1c2.1-0.7,3.6-2.4,4.1-4.3c0.6-2.3,1.7-2.9,3.7-2.5c2.3,0.4,0.9,2.4,1.3,3.6
			C58,146.7,56.8,150.6,54.7,154.2z"/>
		<path class="st190" d="M72.3,192c-0.6,2.9-2.7,5.9,0.9,8.4c0.6,0.4,0.1,0.8-0.1,1.2c-0.7,1.6-0.9,3.6-0.2,4.8
			c2.2,3.8-1.5,3.7-2.9,4.2c-2.1,0.8-2.5-1.5-3.1-2.9c-0.5-1-0.4-2.3-1.8-2.8c-0.6-0.2-0.6-1-0.4-1.5c0.7-2.4,1.5-4.6,0.5-7.3
			c-0.4-1.1,1.6-3,2.1-4.8c0.7-2.8,2.9-0.5,4.4-0.8C72.2,190.8,72.3,191.4,72.3,192z"/>
		<path class="st190" d="M312.5,91.4c-3,1.2-1.9,4.3-2.9,6.4c-0.2,0.3,0,0.8,0,1.2c-0.2,1.2,0.5,3.3-1,3.1c-1.5-0.1-4-0.4-4.3-3
			c-0.1-0.6-0.1-1.3-0.5-1.6c-2.5-2.6-0.6-4.7,0.6-6.8c1.3-2.2,1.6-4.8,2.2-7.2c0.2-0.9,0.5-1.7,1.2-2.2c1.2-0.8,2-1.3,2.6,0.8
			c0.5,1.8-0.1,4.2,2.2,5.2C313,88.7,312.9,90.1,312.5,91.4z"/>
		<path class="st14" d="M275,56.8c0.2-0.4,0.4-0.7,0.6-1.1c0.4-0.4,1.1,0.2,1.4-0.4c0.4-0.1,0.8-0.1,1.1,0.1
			c1.1,0.6,1.4,2.2,2.8,2.6c0.4-0.4,0.8-0.8,1.2-1.1c-0.4,2.2,0.1,4.2,1.4,6.1c1.8,2.8,3.8,5.5,5,8.6c-0.2,0.2-0.4,0.4-0.6,0.6
			c-1.9-1.1-2.6-3-3.4-4.8c-1.6-2.5-3.3-5-4.8-7.6C278.6,57.8,277.1,56.9,275,56.8z"/>
		<path class="st144" d="M277.8,55.7c-0.3,0-0.7,0-1,0c-2.3-2.2-4.5-4.6-6.4-7.2c-1.8-1.9-3.6-3.8-5.5-5.7c0.2-0.2,0.4-0.4,0.6-0.6
			c4.1,3.2,7.2,7.3,10.7,11C277.2,53.8,278.1,54.4,277.8,55.7z"/>
		<path class="st40" d="M51.6,178.7c0.2,3-0.1,6,0.4,9c0.5,2.9,3.2,4.8,3,7.9c-1.9-2.9-3.5-5.9-4.4-9.3
			C51.8,183.9,50.1,181.1,51.6,178.7z"/>
		<path class="st192" d="M61.6,64.4c0.2,0.2,0.3,0.4,0.5,0.7c-0.7,1.4-1.5,2.8-2.2,4.1c-1,1.9-1.5,4.2-3.4,5.4
			c-0.3-0.3-0.5-0.5-0.8-0.8C57.6,70.6,59.6,67.5,61.6,64.4z"/>
		<path class="st193" d="M303.2,124.1c1,3.5,1.2,7,0.6,10.6c-1.4-3.2-0.3-6.7-1.2-10C302.8,124.6,303,124.3,303.2,124.1z"/>
		<path class="st194" d="M65.2,209.8c1.3,3.4,4.7,5.5,6.3,8.7c-2.8-2.1-5.1-4.6-6.8-7.6C65.1,210.7,65,210.2,65.2,209.8z"/>
		<path class="st35" d="M78.6,43.8c0,0.3,0.1,0.6,0.1,0.9c-1.2,1.3-2.3,2.6-3.5,3.9c-1.2,1.4-2.1,3.2-4.3,3.4
			C73,49,75.8,46.4,78.6,43.8z"/>
		<path class="st167" d="M294.8,186.9c-0.9,3.2-2.4,6.1-4.3,8.9c1-3.7,3.2-6.8,3.8-10.6C294.4,185.7,294.6,186.3,294.8,186.9z"/>
		<path class="st194" d="M86.3,229.6c2.3,2.2,5,3.7,7.8,5.1c-3.5-0.6-6.4-2.3-9-4.5C85.6,230.2,86.1,230.2,86.3,229.6z"/>
		<path class="st176" d="M284.4,67.3c1.1,1.6,2.3,3.2,3.4,4.8c0.6,1.4,1.3,2.9,1.9,4.3c-0.2,0.1-0.5,0.2-0.7,0.4
			c-2-2.8-2.7-6.4-5.4-8.8C283.9,67.8,284.2,67.6,284.4,67.3z"/>
		<path class="st195" d="M259.7,230.9c-2.4,2-5.2,3.2-8.1,4.2c2-2,4.9-2.8,7-4.8C258.7,230.8,259.3,230.8,259.7,230.9z"/>
		<path class="st196" d="M56.4,74.6c1.4-1.7,1.8-3.9,3.4-5.4c0.2,0.2,0.3,0.4,0.5,0.5c-1.2,2.2-2.3,4.4-3.5,6.6
			C54.5,76.4,57.1,75,56.4,74.6z"/>
		<path class="st197" d="M270.4,48.5c2.3,2.2,4.6,4.5,6.4,7.2c-0.4,0.5-0.9-0.1-1.3,0c-1.5-2.6-3.4-4.8-5.9-6.4
			C269.9,49,270.1,48.8,270.4,48.5z"/>
		<path class="st198" d="M67.9,55.5c-1,1.2-2,2.4-2.9,3.6c0.4-2.9,2.6-4.8,4.2-7.1c0.2,0.2,0.5,0.5,0.7,0.7
			C70.1,54.3,69,54.9,67.9,55.5z"/>
		<path class="st158" d="M306.5,129.5c0.1,1.2,0.1,2.4,0.2,3.6c0.1,0.1,0.2,0.3,0.1,0.4c0,0.1-0.1,0.2-0.1,0.2c0,1.5,0,3.1,0,5.4
			c-1.6-2.3-1.3-4.2-1.2-6C306.5,132,305.7,130.5,306.5,129.5z"/>
		<path class="st199" d="M50.6,191.5c1.4,2.6,2.7,5.2,4.1,7.8c-0.2,0.1-0.4,0.2-0.6,0.3c-1.4-2.5-2.8-4.9-4.2-7.4
			C50.2,192,50.4,191.7,50.6,191.5z"/>
		<path class="st108" d="M291.5,74.4c1.2,2.8,2.4,5.6,3.6,8.3c-0.2,0.1-0.4,0.2-0.6,0.3c-1.2-2.5-2.4-4.9-3.5-7.4
			C291.4,75.3,291.3,74.8,291.5,74.4z"/>
		<path class="st159" d="M277.8,55.7c-0.5-0.8-1-1.6-1.6-2.4c0.2-0.2,0.4-0.4,0.6-0.6c1.4,1.8,2.7,3.6,4.1,5.4
			c-0.2,0.2,0.1,1.2-0.5,0.7C279.4,57.9,278.6,56.7,277.8,55.7z"/>
		<path class="st200" d="M41.6,126.6c0.7-1.7,0.3-3.7,1.2-5.4c0.4,0.7-0.3,1.7,0.5,2.3c0,0.2,0.1,0.4,0.2,0.7
			c0.4,1.2,0.3,2.4-0.7,3.4c-0.2,0.2-0.3,0.5-0.5,0.7c-0.2,0.2-0.3,0.3-0.5,0C41.7,127.8,41.7,127.2,41.6,126.6z"/>
		<path class="st132" d="M279.1,218c-1.6,1.7-3.1,3.6-5.5,4.5c1.6-1.7,3.2-3.4,4.9-5.2C278.6,217.5,278.8,217.8,279.1,218z"/>
		<path class="st201" d="M303.6,164.1c0.2-2.6,0.5-5.2,1.2-7.7c0.6,1.1-0.6,2.6,0.6,3.6c-0.4,1.4-0.8,2.7-1.2,4.1
			C304,164.3,303.8,164.3,303.6,164.1z"/>
		<path class="st145" d="M88.4,235.2c2,1,4,2,6,3c-2.5-0.2-4.6-1.1-6.5-2.4C88.1,235.5,88.3,235.3,88.4,235.2z"/>
		<path class="st202" d="M277.9,213.9c1-1.6,1.9-3.2,2.8-4.8c0.2,0.4,0.1,1,0.6,1.3c-0.6,1.6-1.9,2.8-3,4.1
			C278,214.6,277.7,214.5,277.9,213.9z"/>
		<path class="st132" d="M70.8,52.1c2.1-0.2,2.5-2.7,4.3-3.4c0.2,0.2,0.4,0.5,0.7,0.7c-1.3,1.1-2.6,2.3-3.9,3.4
			C71.6,53,71.3,53,71,52.9c-0.3-0.2-0.3-0.5-0.1-0.8L70.8,52.1z"/>
		<path class="st116" d="M301.8,160.6c0.1-2,0.2-3.9,0.2-5.9c0.3,0.2,0.7,0.4,1,0.6c0.3,1.8-0.5,3.5-0.6,5.3
			C302.2,160.7,302,160.7,301.8,160.6z"/>
		<path class="st203" d="M293.1,195.1c0.8-1.6,1.6-3.1,2.4-4.7c0.2,0.4,0,1,0.6,1.2c-0.8,1.4-1.6,2.7-2.4,4.1
			C293.1,195.8,292.8,195.7,293.1,195.1z"/>
		<path class="st204" d="M295.6,90.7c1,1.2,1.3,2.7,1.7,4.2c0.3,0.6,0,0.6-0.5,0.5c-0.7-1.1-1.3-2.2-2-3.3
			C295.5,91.9,295.4,91.2,295.6,90.7z"/>
		<path class="st205" d="M255.1,236.3c1.2-0.6,2.3-1.2,3.5-1.8c0.2,0.6,0.8,0.4,1.3,0.6c-1.4,0.6-2.7,1.2-4.1,1.8
			C255.1,237.1,255,236.8,255.1,236.3z"/>
		<path class="st206" d="M43.3,103c0.2-1.4,0-2.8,0.7-4.1c0.4,0.6-0.1,1.4,0.6,1.9c-0.2,1-0.4,1.9-0.7,2.9
			C43.4,103.8,43.1,103.6,43.3,103z"/>
		<path class="st207" d="M43.4,155.9c0,0.8,0,1.6,0,2.4c-0.2,0.3-0.3,0.3-0.5,0c-0.3-1.8-0.9-3.5-0.6-5.3
			C43.3,153.7,42.5,155.1,43.4,155.9z"/>
		<path class="st208" d="M68.1,219.3c-1-0.8-1.9-1.7-2.9-2.5c0.2-0.2,0.5-0.5,0.7-0.8c1.1,0.5,1.6,1.6,2.3,2.4
			C68.4,218.8,68.3,219.1,68.1,219.3z"/>
		<path class="st209" d="M40,133c0,1.8,0,3.6,0,5.3c-0.9-1.8-0.9-3.6-0.7-5.3C39.5,133,39.8,133,40,133z"/>
		<path class="st35" d="M70.9,52.1c0.1,0.2,0.1,0.5,0.2,0.7c-0.2,1.5-1.4,2.1-2.4,2.9c-0.2-0.1-0.5-0.1-0.8-0.2
			c0.7-0.9,1.3-1.9,1.9-2.8C70.2,52.5,70.3,51.9,70.9,52.1z"/>
		<path class="st139" d="M55.1,74.4c-0.4,1-0.8,1.9-1.2,2.9c-0.5,0.1-0.8,0-0.6-0.6c0.4-1.2,0.8-2.3,1.3-3.5
			C54.7,73.6,54.9,74,55.1,74.4z"/>
		<path class="st189" d="M37,138.5c0.3-0.6,0.9-1.2,1.5-0.8c0.6,0.4,0.1,0.9-0.3,1.3C37.7,138.8,37.3,138.6,37,138.5z"/>
		<path class="st35" d="M81.5,38c0.1,1.1,0.6,2.1-0.4,3C81.2,40,80.9,38.9,81.5,38z"/>
		<path class="st114" d="M300.3,166.4c0.8,1,0.9,2.1,0.1,3.1C300.3,168.4,300.3,167.4,300.3,166.4z"/>
		<path class="st192" d="M56.9,76.8c1,0.1,2.1-0.4,2.9,0.6c-1,0-2,0-2.9,0C56.9,77.1,56.9,76.9,56.9,76.8z"/>
		<path class="st190" d="M54.7,213.2c-0.7,1.2-0.5,2.2,0.9,2.4c4,0.5,7.1,2.7,10.2,4.9c1.7,1.2,1.4,3.9-0.6,5.1
			c-2.5,1.5-7.9,1-10.2-0.9c-1.6-1.2-3.6-1.2-5.5-1.4c-1.3-0.1-2-0.4-2-1.9c0.1-1.2-0.4-2.1-1.7-2.4c-0.9-0.2-1.3-0.9-1.2-1.8
			c0-1,0.8-1.4,1.5-1.5c1.5-0.2,2.5-0.6,3.5-2C50.7,212.5,53,213.6,54.7,213.2z"/>
		<path class="st190" d="M43.5,185.7c-0.2,2,0.2,3.6,2,4.8c1,0.6,1.6,1.7,1.5,3c-0.1,1.2,0.2,1.9,1.4,2.5c1.3,0.6,1.1,2.1,0.7,3.1
			c-0.5,1.2-1.7,0.9-2.5,0.5c-3.5-1.6-6.9-3.3-9.7-6.1c-1.5-1.5-2.8-3.3-4.6-4.3c-1.8-1.1-1.8-2.7-2.2-4.2c-0.4-1.4,0.7-2.5,1.5-3.3
			c1-0.9,1.8,0.6,2.3,1.1C36.5,186.1,39.8,186.5,43.5,185.7C43.5,185.8,43.5,185.7,43.5,185.7z"/>
		<path class="st190" d="M59.7,164.1c0.1,2,1.2,3.6,0.3,5.4c-0.3,0.6,0,1.4,0.7,1.7c1.7,0.6,1.7,2.1,1.5,3.4
			c-0.8,5-2.5,9.7-5.6,13.8c-1.1,1.4-1.6,0.9-2.3-0.3c-2-3.4-0.7-7-0.6-10.6c0-1.2,0.6-2.5,0.2-3.7c-0.2-0.7,0.1-1.2,0.7-1.4
			c2.4-0.8,3.1-2.5,3.2-4.9C57.8,166.4,58.1,165.1,59.7,164.1z"/>
		<path class="st190" d="M40,164.6c-0.5,0.9,0.6,2.6-1.1,2.9c-2.3,0.4-3.5-1.5-4.9-2.7c-3.6-3.3-5.7-7.7-7.9-12
			c-0.8-1.6-2.3-2.9-2.4-5c0-0.6-0.2-1.2,0.4-1.5c0.7-0.5,1.1-0.1,1.7,0.4c1.7,1.5,4.4,2.2,4.1,5.4c-0.1,0.5,0.5,0.8,1,0.9
			c3.9,1.1,5.7,4,6.5,7.6c0.2,0.8,0.5,1.5,1.3,1.7C40.1,162.6,40.4,163.5,40,164.6z"/>
		<path class="st190" d="M42.8,127.6c0.1-1.2-0.1-2.4,0.7-3.4c1,0,2.2,0.3,2.6-0.8c1-2.9,3.2-4.9,5.3-7c1.1-1.1,2.4-1.6,3.6-2.3
			c0.6-0.4,1.2-0.2,1.4,0.4c0.6,1.6,1.7,3.8,0.3,4.9c-1.8,1.4-2.8,2.9-4,4.7c-0.8,1.2-3,2.4-4.5,3.6c-0.5,0.4-1.2,0.8-1.5,1.3
			c-0.7,1.2-1.8,1.2-2.8,0.9C42.5,129.7,43,128.5,42.8,127.6z"/>
		<path class="st210" d="M42.9,158.2c0.2,0,0.3,0,0.5,0c0.1,1.6,0.7,3,1.3,4.4c0.4,1,0.9,2-0.5,2.9
			C43.3,163.1,43.2,160.6,42.9,158.2z"/>
		<path class="st211" d="M41.8,128.4c0.2,0,0.3,0,0.5,0c-0.3,2,1.1,4.2-0.9,6.1C41.5,132.5,41.7,130.4,41.8,128.4z"/>
		<path class="st212" d="M68.1,219.3c0-0.3,0.1-0.6,0.1-0.8c1,1.1,2,2.1,3,3.2C69.7,221.3,68.8,220.5,68.1,219.3z"/>
		<path class="st189" d="M39.9,143.7c0.2-0.5-0.2-1.4,0.7-1.6c0.1,0,0.3,0.2,0.4,0.3C41.2,143.4,40.5,143.5,39.9,143.7
			C39.8,143.7,39.9,143.7,39.9,143.7z"/>
		<path class="st190" d="M306.7,133.6c0-0.2,0-0.4,0-0.6c1.4-0.6,2.1-1.6,2.3-3.1c0.2-2.5,1.2-4.9,1.2-7.4c0-0.9,0.5-1.4,1.3-1.8
			c0.9-0.5,1.5-1.4,1.5-2.4c0-2.8,2.7-4.1,3.1-6.7c0.2-1.3,3.3-1,3.9,0.3c0.8,1.8,0,7.4-1.7,8.5c-2.2,1.4-2.4,3.2-2.3,5.5
			c0.1,2.4,0.9,5.4-3.3,5.1c-0.3,0-0.9,0.3-1,0.6C311.2,134.9,308.9,134.1,306.7,133.6z"/>
		<path class="st3" d="M288.4,147.2c0.1-1.4,0.7-2.7-0.3-4.1c-0.9-1.4,0.7-2.7,1.6-3.3c1-0.7,1.9,0.6,2.2,1.6c0.3,1,0.9,1.5,1.7,1.8
			c1,0.4,1.6,1.2,1.8,2.2c0.6,3.4,2.7,5.9,4.9,8.3c1.2,1.4,1.5,2.5,0.3,3.7c-1.3,1.4-3,1.1-4.2-0.2c-1.1-1.2-1.6-2.9-3.9-3
			c-0.8,0-0.7-2-1.1-3.1C290.7,149.7,290.9,147.5,288.4,147.2C288.4,147.2,288.4,147.2,288.4,147.2z"/>
		<path class="st190" d="M321.3,150.6c-0.6,0.6-1.9,1.2-1.8,1.7c0.2,3.8-3,5.5-4.6,8.1c-1,1.6-3,1.7-4,3.2c-0.3,0.5-0.8,0.8-1.2,1.2
			c-0.8,0.9-1.1,2.4-2.8,2c-0.7-0.2-0.7-0.8-0.8-1.4c-0.1-1.5,0-2.9,1.6-3.7c0.4-0.2,0.9-0.4,1.3-0.7c2.1-1.2,1.1-3.6,1.8-5.3
			c2.9-2.6,4.5-6.4,8.2-8.2C321.5,147.4,321.7,147.6,321.3,150.6z"/>
		<path class="st190" d="M286.7,86.7c0,2.5,0.1,5,3.7,4.8c0.8,0,1,0.8,1.3,1.4c0.7,1.4,1,3,2.9,3.7c0.9,0.4,1.2,1.9,0.5,2.8
			c-1,1.2-2.3,1.6-3.9,1c-1.8-0.6-2.9-2.3-3.7-3.5c-1.7-2.5-4.6-3.7-6.1-6.5c-1.3-2.4,0.2-2.4,1.3-2.8
			C284.1,87.1,285.4,87,286.7,86.7C286.8,86.7,286.7,86.7,286.7,86.7z"/>
		<path class="st190" d="M269.5,68.1c3-3.1,5.5-0.9,7.7-0.3c2,0.6,3.7,2.3,5.4,3.7c1.2,1,0.2,3.5,1.6,5c0.2,0.3-0.5,0.8-1,0.8
			c-1.3-0.1-3.2,0.8-3.6-0.9c-0.7-2.5-2.5-2.7-4.4-3.1c-1.2-0.2-2.1-0.7-2-2C273.4,69,272.3,68,269.5,68.1z"/>
		<path class="st114" d="M301.8,160.6c0.2,0,0.4,0,0.6,0c-0.2,1.8-0.1,3.6-1.2,5.5C299.8,163.8,301,162.2,301.8,160.6z"/>
		<path class="st213" d="M296.8,95.4c0.2-0.2,0.3-0.3,0.5-0.5c1,1.4,1.2,3.1,1.6,4.8c-0.5,0.5,0.1,1.4-0.6,1.8
			C297.8,99.5,297.3,97.4,296.8,95.4z"/>
		<path class="st3" d="M321.3,150.6c0.1-1.7-0.1-3.1-2.3-2.9c0.7-0.7,1.7-1.6,2.4-0.9C322.3,147.9,322.2,149.3,321.3,150.6z"/>
		<path class="st3" d="M310.7,155.9c-0.3,1.9,0.9,4.2-1.8,5.3C310.3,159.7,309.7,157.5,310.7,155.9z"/>
		<path class="st150" d="M298.3,101.5c0.3-0.6-0.1-1.4,0.6-1.8c0.3,1.2,0.6,2.4,0.9,3.6C298.2,103.3,298.3,102.3,298.3,101.5z"/>
		<path class="st214" d="M303.6,164.1c0.2,0,0.4,0,0.6,0c-0.2,0.9-0.5,1.8-0.8,3.1C303,165.8,302.9,164.9,303.6,164.1z"/>
		<path class="st190" d="M265.9,236.7c4.2,0.1,7.6,0.6,10.4,3.2c1.7,1.6,1.4,2.7,0,3.8c-3.4,2.7-7.4,3.8-11.8,3
			c-3-0.5-4.3-3.3-6.6-4.7c-1.2-0.8,0.3-4.3,2-4.6C262.1,237.1,264.4,236.9,265.9,236.7z"/>
		<path class="st190" d="M285.5,225.8c-1.1-0.1-2.1,0-3.2-0.2c-1.9-0.4-2.5-2.3-1.2-3.6c0.1-0.1,0.4-0.2,0.4-0.4
			c0.8-5.6,5.7-4.2,9.1-5.2c1.2-0.4,1.7-1.1,2.3-2c0.8-1.3,1.8-1.6,2.5,0c0.7,1.5,1.7,2,3.2,1.9c1.2-0.1,2.3,0.5,2.3,1.7
			c0,1.2-1.1,1.7-2.2,1.8c-0.6,0-1.3,0-1.5,0.6c-2.1,5.2-7.9,2.9-11.3,5.6c-0.1,0.1-0.4-0.1-0.5-0.1
			C285.5,225.9,285.5,225.8,285.5,225.8z"/>
		<path class="st190" d="M314,186.8c0,0.1,0,0.7-0.2,0.7c-2.4,0.7-2.3,3.1-3.5,4.7c-1.3,1.8-2.6,3.5-5.2,3.8c-1.9,0.2-2.8,2.6-4.9,3
			c-1.5,0.3-2.8,0.6-3.3-1.2c-0.5-1.6-0.4-3.2,1.6-3.8c1.1-0.3,1.7-0.8,1.8-2c0-0.4,0.2-0.9,0.5-1c3.4-1.8,5.5-5.8,10-5.8
			c0.4,0,1,0.4,1.2-0.4c0.2-0.6,0.1-1.5,1.1-1.3c0.9,0.2,0.6,1.1,0.7,1.7C313.8,185.7,313.9,186.1,314,186.8z"/>
		<path class="st190" d="M278.4,193.2c0.7,5.3,0.3,10.7-0.5,16c-0.1,0.9-0.3,1.7-0.6,2.5c-0.5,1.3-1.5,1.4-2.1,0.3
			c-0.8-1.4-1.8-2.5-3.1-3.4c-0.5-0.4-0.9-1.2-0.5-1.5c2.2-2.2-2.2-5.6,0.9-6.9c2.7-1.1,3-2.9,3.7-5c0.2-0.7,0.2-1.3,0.1-2
			c-0.1-0.9-0.4-2.2,1.1-2.1C278.7,191.2,278.5,192.2,278.4,193.2z"/>
		<path class="st190" d="M292.6,183.2c-0.2,2.3-0.3,5.1-2,5.8c-2.1,0.8-2.2-2.4-3.5-3.6c-1.8-1.6-0.5-3.7-0.8-5.5
			c-0.4-2.4-0.6-4.8-0.9-7.2c-0.1-0.8,0.1-1.6,1-1.9c0.8-0.4,1.1,0.6,1.6,0.8C293.9,174,291.1,179.5,292.6,183.2z"/>
		<path class="st190" d="M250.9,225.5c3.1-0.6,4.7-2.6,4.4-5.4c-0.2-2.1,2.8-4.4,4.7-3.8c0.5,0.2,1,0.5,0.9,1
			c-0.7,1.9,0.5,4.3-1.7,5.8c-0.7,0.5-1.2,1.3-1.1,2.2c0.3,2.4-1.4,3.4-3.2,3.2C253.2,228.4,251.2,227.8,250.9,225.5
			C250.9,225.5,250.9,225.5,250.9,225.5z"/>
		<path class="st190" d="M261.5,212.3c-0.2,0.9,0.3,2.1-1.1,2c-1.1,0-1.3-1-1.3-1.9c0-0.9,0.2-1.8,1.3-1.9
			C261.8,210.5,261.3,211.7,261.5,212.3z"/>
		<path class="st215" d="M277.9,213.9c0.2,0.2,0.3,0.4,0.5,0.5c-1.2,1.4-2.3,2.8-3.5,4.1c-0.1,0.2-0.5,0.2-1,0.3
			C274.2,216.2,276.6,215.5,277.9,213.9z"/>
		<path class="st165" d="M293.1,195.1c0.2,0.2,0.4,0.4,0.5,0.6c-0.6,1.5-1.1,3-2.9,4.3C291.4,197.9,292.2,196.5,293.1,195.1z"/>
		<path class="st110" d="M255.1,236.3c0.2,0.2,0.4,0.4,0.6,0.6c-0.8,0.7-1.7,1.1-3.1,1.1C253.3,236.9,254.2,236.6,255.1,236.3z"/>
		<path class="st190" d="M287.7,168.4c-0.1,0.2-0.1,0.6-0.2,0.6c-0.5,0-0.7-0.3-0.7-0.7c0-0.2,0.1-0.5,0.2-0.7
			C287.3,167.8,287.5,168.1,287.7,168.4z"/>
		<path class="st216" d="M46.5,100.3c0.5-2.2,1-4.5,2.5-6.4c-1.5,2.7-1,5.9-2,8.7C46.2,102,47,101,46.5,100.3z"/>
		<path class="st90" d="M53.3,76.7c0.2,0.2,0.4,0.4,0.6,0.6c-1,1.7-1.3,3.7-3.2,4.9C51.5,80.4,52.4,78.5,53.3,76.7z"/>
		<path class="st217" d="M43.3,103c0.2,0.2,0.4,0.4,0.6,0.7c-0.2,1.7-0.6,3.4-1.6,5.5C42.2,106.6,42.7,104.8,43.3,103z"/>
		<path class="st178" d="M46.5,100.3c0.7,0.6,0.5,1.5,0.5,2.3c-0.3,0.2-0.5,0.7-0.8,0.7c-0.6,0.1-0.4-0.5-0.3-0.8
			C46.1,101.8,46.3,101.1,46.5,100.3z"/>
		<path class="st189" d="M79.2,56.9c-2.2-0.2-3.6-0.5-2-2.5c1.1-1.4,1.1-3.6,3.3-4.2c3-0.8,6-0.6,9-0.3c1.5,0.2,1,1.7,0.2,2.5
			c-0.9,0.9-1.9,1.8-3,2.3C84.1,56,81.1,55.6,79.2,56.9z"/>
		<path class="st218" d="M68.7,55.7c0.4-1.3,1.7-1.8,2.4-2.9c0.3,0,0.5,0,0.8,0C70.9,53.8,70.9,56,68.7,55.7z"/>
	</g>
</g>
</svg>
